/* XPM */
static char *c21dfde1338b4a6b813f995eed0e3638E4szhHeUvfE7aU2Y[] = {
/* columns rows colors chars-per-pixel */
"64 64 241 2 ",
"   c #050505",
".  c #0A0405",
"X  c #0A090A",
"o  c #080808",
"O  c #160809",
"+  c #141414",
"@  c #1C1C1C",
"#  c #191616",
"$  c #110F10",
"%  c #231B1E",
"&  c #27141A",
"*  c #37151B",
"=  c #2B0C0D",
"-  c #1B1924",
";  c #1C1639",
":  c #261E21",
">  c #361721",
",  c #231E3C",
"<  c #242424",
"1  c #2C2C2C",
"2  c #292528",
"3  c #342B2D",
"4  c #35302F",
"5  c #2E2D34",
"6  c #2B2939",
"7  c #322E38",
"8  c #323233",
"9  c #3B3435",
"0  c #3C3B3C",
"q  c #36343A",
"w  c #2F312F",
"e  c #25211D",
"r  c #431B27",
"t  c #452D31",
"y  c #44373A",
"u  c #512F33",
"i  c #643D3B",
"p  c #49443E",
"a  c #1C1541",
"s  c #1F1844",
"d  c #231C48",
"f  c #193656",
"g  c #2A234C",
"h  c #2B2849",
"j  c #312B4C",
"k  c #312D43",
"l  c #353344",
"z  c #373648",
"x  c #2C2B55",
"c  c #2A2953",
"v  c #312A55",
"b  c #312E5B",
"n  c #213155",
"m  c #27375B",
"M  c #3D3A59",
"N  c #2E3049",
"B  c #3B3C66",
"V  c #483E41",
"C  c #563B44",
"Z  c #423E5C",
"A  c #433E69",
"S  c #443D65",
"D  c #603C46",
"F  c #1E425C",
"G  c #2E4857",
"H  c #2B4A69",
"J  c #294966",
"K  c #364568",
"L  c #355873",
"P  c #34536B",
"I  c #3C617C",
"U  c #3E6276",
"Y  c #444444",
"T  c #4B4B4B",
"R  c #4A4346",
"E  c #58494B",
"W  c #474557",
"Q  c #594E53",
"!  c #535353",
"~  c #5B5A5B",
"^  c #5B5555",
"/  c #45525B",
"(  c #65444A",
")  c #664A53",
"_  c #744C57",
"`  c #67575C",
"'  c #72555B",
"]  c #6B615D",
"[  c #484567",
"{  c #5A5A67",
"}  c #4D4872",
"|  c #455B78",
" . c #565579",
".. c #4A566A",
"X. c #655E65",
"o. c #795A64",
"O. c #625D7D",
"+. c #5B6367",
"@. c #45647A",
"#. c #566771",
"$. c #547276",
"%. c #636363",
"&. c #6B6B6C",
"*. c #686568",
"=. c #7A666B",
"-. c #696775",
";. c #776D71",
":. c #747474",
">. c #7C7C7C",
",. c #77747A",
"<. c #865D57",
"1. c #9B765A",
"2. c #9E795C",
"3. c #987356",
"4. c #8B6553",
"5. c #A17C5F",
"6. c #875C68",
"7. c #88646B",
"8. c #936C6A",
"9. c #9C746D",
"0. c #9A7666",
"q. c #8A6672",
"w. c #996E7C",
"e. c #956A78",
"r. c #85757A",
"t. c #9C7374",
"y. c #93747C",
"u. c #9C717D",
"i. c #977477",
"p. c #897366",
"a. c #A27D62",
"s. c #A27C6B",
"d. c #A37B79",
"f. c #AB856A",
"g. c #AE896C",
"h. c #A4816A",
"j. c #B18C6F",
"k. c #AF8973",
"l. c #AB8577",
"z. c #B28D71",
"x. c #B28B7A",
"c. c #BA9579",
"v. c #918079",
"b. c #C19C7F",
"n. c #3F6280",
"m. c #466983",
"M. c #537589",
"N. c #526E85",
"B. c #6B6686",
"V. c #7B7985",
"C. c #716F91",
"Z. c #485F81",
"A. c #897C81",
"S. c #9C7281",
"D. c #987C84",
"F. c #837F9A",
"G. c #A47986",
"H. c #A57B87",
"J. c #AB7F90",
"K. c #698B91",
"L. c #7EA1B0",
"P. c #62879A",
"I. c #838283",
"U. c #8C8B8C",
"Y. c #8A8488",
"T. c #978689",
"R. c #9A8D92",
"E. c #959393",
"W. c #9C9B9B",
"Q. c #9A9496",
"!. c #898C93",
"~. c #AC838B",
"^. c #A98587",
"/. c #B18983",
"(. c #B1868D",
"). c #B18885",
"_. c #B99586",
"`. c #AE8492",
"'. c #A48C94",
"]. c #AA8993",
"[. c #AA8A95",
"{. c #B18693",
"}. c #B58B92",
"|. c #A5949A",
" X c #BB9897",
".X c #AD978A",
"XX c #BCA59C",
"oX c #9490A8",
"OX c #95ADBA",
"+X c #A4A4A4",
"@X c #ACAAAA",
"#X c #BBA8A8",
"$X c #B7B6B7",
"%X c #ABAAB4",
"&X c #A09FA4",
"*X c #C39D86",
"=X c #C39C98",
"-X c #C7A388",
";X c #CAA697",
":X c #D3AD9A",
">X c #D6B39C",
",X c #D9B59C",
"<X c #CAA8A4",
"1X c #D8B5A7",
"2X c #CBB4B7",
"3X c #D4B8B4",
"4X c #D2B0A9",
"5X c #E5BCB1",
"6X c #C79DA1",
"7X c #EAC8BB",
"8X c #97B9C8",
"9X c #BDBBCA",
"0X c #CBBBC1",
"qX c #AFD1D6",
"wX c #BBDBEB",
"eX c #BDE2ED",
"rX c #9FC5D8",
"tX c #C9C9CA",
"yX c #D6D7D7",
"uX c #D4CBCA",
"iX c #CAF2E9",
"pX c #D6F3EB",
"aX c #C6E9F6",
"sX c #DDFCF7",
"dX c #DCFEF9",
"fX c #D7F7F8",
"gX c #CFEBEA",
"hX c #E8E8E8",
"jX c #E2FBF7",
"kX c #EBFAF7",
"lX c #E4FCF9",
"zX c #ECFCFA",
"xX c #E9F7F5",
"cX c #F6F6F6",
"vX c #F4F4FB",
"bX c #F4FAF9",
"nX c #F8F8F8",
"mX c #F8F8F9",
"MX c #F7F8F7",
"NX c #E5F3EE",
"BX c #DFD0CE",
/* pixels */
"nXnXnXnXnXnXnXnXnXnXnXNXgXgXsXiXiXiXaXeXP.M.n.n.H H K C.C.c B.V.-.-.d C. .g v v v v v v c c H H L rXfXfXdXdXdXdXdXdXfXdXsXdXdXdX",
"nXnXnXnXnXnXnXnXnXnXnXcXxXNXpXiXiXiXfXL.n.m.n.H H H B C.B.; -.-.B.-.b oXA v v v v v v v b c m m J n.aXfXdXdXfXdXsXdXsXsXfXdXsXsX",
"nXnXnXnXnXnXnXnXMXnXnXnXbXkXNXpXiXiXaXM.n.n.H H H B B Z.oXk ,.&.A.X.{ !.v v v v v v v v v v c m F F 8XfXfXfXdXdXsXfXfXdXdXdXsXfX",
"nXnXnXnXnXnXMXnXnXMXnXnXMXbXbXpXiXfXrXL n.L H H B B B b C.,.-.{ V.{ {  .d v v v v v v v v c c c m J I eXfXfXdXdXsXsXdXdXdXdXdXdX",
"MXnXnXnXnXnXnXnXnXnXmXmXMXMXbXkXzXfXP.I L H H H f f b d M F.;.*.V.-.X.Z g v d d s c v c v v b c f n F K.dXdXfXdXdXdXsXsXdXsXjXjX",
"nXnXnXnXnXMXnXnXnXnXmXmXMXMXmXbXzXOXN.I L H H K m x c v j h B.,.-.X.; d v d a a a s s g v v v c n f J P 8XdXdXfXdXdXdXsXsXjXzXkX",
"nXnXnXnXnXnXnXnXnXmXmXmXmXmXMXmXtX#.m.n.L H K m b b c v j g l : - ; ; ; d a ; s d s a s d b v x n n H F @.aXdXdXdXdXsXsXjXjXbXbX",
"nXnXnXnXnXnXnXnXnXmXmXmXmXmXmXmXW.{ L n.L B K x x b c c v v h , , , d d d d d d g a a a s v v x n f H F @.aXdXdXdXsXsXlXkXbXbXbX",
"mXmXMXmXMXMXmXmXnXnXMXmXMXmXMXmXU.#.@.@.} K A b v v v v v c v v j v v v v v v g a a s a d v v x f f J F I eXdXdXsXdXlXzXbXbXmXmX",
"mXmXMXmXmXMXmXmXbXbXbXbXmXMXmXcXI.*.| K B K A A A S S j j j j c j j j j v v v v v v v d d v v x f f f F L rXlXdXsXsXkXbXmXbXbXbX",
"MXMXmXmXMXvXmXbXzXlXlXlXzXbXbXcXK.&. .S A A A A A Z N q 7 7 7 7 7 6 6 k j v v v v c v v g v d c n f f f I eXdXdXkXzXzXbXMXzXlXlX",
"MXMXmXmXmXmXmXkXjXsXjXjXlXzXbXbXI.{  .S A A A S Z j 5 8 7 7 8 0 l q 0 z j v c c j v v v x v d c n f f F U aXdXdXzXbXbXbXbXkXjXdX",
"mXmXMXmXmXmXMXbXkXlXlXdXlXzXzXzXoXP  .} A S S Z j 7 8 8 1 w 1 2 1 1 < < 6 g k l j k k j c v v x n f f J J 8XdXfXlXzXbXzXzXkXdXdX",
"MXmXmXMXMXmXmXbXbXzXlXlXsXjXlXfXM... . .} S Z W l 5 8 5 8 2 0 +.:.I.A.;.{ W 6 5 7 7 k h j v v x n f f F J M.iXfXdXjXkXbXbXkXjXdX",
"mXmXmXMXMXmXmXmXmXzXlXdXdXfXlXqX| |  .} S S Z l 5 1 8 ! ^ 2 ,.W.E.W.|.W.W.U.&.2 # - 7 l j g v x f f J J H F OXdXsXjXkXbXbXkXjXsX",
"MXMXmXmXmXmXMXmXmXbXlXdXdXfXfXOXP Z. .[ Z Z z 5 5 1 Y %.Y T E.E.R.R.Q.R.Y.U.!.&.5 2 < < 6 k j c m J H H H L P.fXlXkXkXzXbXbXkXzX",
"mXbXmXmXmXnXnXMXMXbXlXsXdXdXiX$.P @.} } W l 5 w 8 q T ~ 0 >.E.Q.Q.'.[.'.Y.E.U.U.%.9 Y 1 @ 6 h c n m H H L I m.aXbXzXbXmXmXbXbXbX",
"zXzXbXbXzXzXbXbXzXzXjXdXdXdXqXP m...M Z q 5 8 5 p z ! 0 ! |.Q.R.'.'.`.[.'.R.R.R.A.Y T 1 @ - 6 h n n H H L I I wXbXbXbXmXmXmXmXmX",
"jXlXjXjXsXjXdXjXdXdXsXsXfXiXK.$.N. .W 7 5 5 8 1 w q R : =.[.[.[.[.`.{.{.[.[.[.].|.` Y 0 1 w - 6 N x K H L n.N.wXzXbXmXmXMXMXmXmX",
"sXsXdXsXdXdXdXdXsXsXsXsXsXqX$.#. .Z 7 8 2 2 w w < 8 : Q }.[.{.{.{.`.(.{.{.{.{.].R.r.8 8 0 q < 1 k k B K P I N.aXbXbXmXmXMXMXMXMX",
"kXkXlXsXdXsXdXdXdXdXdXsXpXiX$.$.[ j 6 1 @ e < < : + Y R.`.{.J.J.{.).).).{.H.J.S.o.Q E @ 0 %.! p z z z P P @.K.fXbXmXnXnXMXnXnXnX",
"bXbXkXjXjXdXsXsXdXsXdXsXsXpXK...K N z < + @ @ @ + - ,.Q.[.{.{.J.~.)././.~.S.u.e.7.*.:.^ 2 *.K.=.&.&...G P L L.sXzXmXnXvXMXnXMXnX",
"bXbXzXlXlXlXjXjXsXsXjXjXjXgXK.T z W 5 @ @ @ @ @ + V ;.o.o.q.S.S.w.H./.).u.u.S.S.y.A.Q.E.Y V A.A.I.Y.,./ G G K.pXzXmXmXMXnXnXnXnX",
"nXbXbXzXbXzXzXzXjXsXkXkXpXE.+.T T 5 @ @ @ @ @ % V Q ) ) ( _ 6.6.d.d.d.^.u.S.S.S.y.;.>.:.~ ` T.A.r.I.V.+.G G $.qXzXmXMXnXnXnXnXnX",
"nXnXnXMXbXbXbXzXjXjXbXhXE.:.%.0 7 - @ @ @ @ @ ~ >.r.y.y.S.S.S.e.w.w.G.J.S.S.S.e.q.^ q 2 V Q ) q.D.T.!.I.{ W Z.8XzXmXnXnXnXnXnXnX",
"nXMXnXnXmXmXmXzXkXzXyX!.K.>.~ 1 # @ @ @ @ @ ! U.Y.r.r.r.q.q.S.S.e.w.J.J.S.S.G.S.6.o.X.) X.7.o.S.R.'.|.T.*.} Z.OXzXmXmXmXnXnXnXnX",
"nXnXnXnXmXmXbXbXkXtXW.:.~ T 1 @ @ @ < @ 1 y { X.T ! > 2 _ S.6.S.6.e.J.J.u.u.J.J.G.G.J.J.H.D.G.J.{.[.'.R.;.-.B.oXvXvXvXmXnXnXnXnX",
"nXMXMXnXmXmXbXyX$XI.%.T 8 w @ @ @ 0 8 % T ` ^ V R ;.V > _ S.S.S.6.6.e.S.u.u.u.w.S.d.J.{.{.{.{.(.{.{.[.|.V.-.B.oXvXvXmXmXnXnXnXnX",
"nXmXmXmXhXyX$Xv.~ T 8 0 ! w @ @ < T 0 9 Q o.( ( o.o.o.S.e.G.{.S.6.6.e.d.d.s.u.u.J.J.{.{.{.(.H.x.).~.[.|.,.-.B.oXvXmXnXnXnXnXnXnX",
"cXhXtX$X+X>.! ! 8 8 w &.! @ @ < 2 ~ ` 9 C o.o._ e.S.w.S.G.`.J.w.6.6.6.d.c.s.9.d.}.}.(.{.{.).x._. X}.[.|.A.{ B.oXvXvXnXnXnXnXnXnX",
"$X+X@X+XI.T 8 w w ~ %.~ # @ @ < q &.:.*.C o.q.e.S.S.G.G.`.{.{.w.6.6.8.9.s.a.9.s.d.).).x././.H.=X6X X[.'.,.! -.oXvXvXnXnXmXvXnXnX",
"yXuXW.*.0 w w 1 W.:.Y < @ @ # Y :.:.I.@XC o.6.G.S.G.{.{.{.`.{.w.6.4.3.9.2.2.a.2.1.x.x.x.x.x.(.=X X~.[.T.-.! ;.&XhXmXnXmXmXnXnXnX",
"$X&.Y Y w 1 w I.$XY 1 8 1 @ X :.@Xr.%XuX) o.7.S.J.(.).J.(.(.(.9.<.4.3.5.s.j.z.s.1.g.c.j.g.x.=X*XJ.(.{.R.^ G ^ I.NXMXMXnXnXnXnXnX",
"T 0 w 8 2 T %.$X~ 8 w w w @ w p ;.K.E.uXq._ 7.w.J.}.)./.x.x./.8.<.3.5.j.b.z.z.z.5.j.b.b.c.j./.).J.(.].'.` Y ^ v.NXmXMXMXnXnXnXnX",
"8 w 8 < U.U.E.*.8 w w 8 1 T E.! Y >.E.2XC ) 7.y.d.H.x.k.x._.c.a.<.3.5.z.b.z.g.5.2.g.b.b.*Xg.z.x./.(.H.T.T 0 ~ >.cXnXMXnXnXnXnXnX",
"w w 1 E.@XW.>.1 w 8 8 w 8 tXyXT Y 0 -.E - ) q.S.t.d.c.j.b.*X*Xg.4.3.3.3.g.j.5.2.5.g.j.c.b.j.j.x./.(.y.r.0 w ! >.cXcXcXMXMXnXnXcX",
"8 % T.hXU.+X1 w 8 Y 0 < |.cXyXE.2 @ w $ 4 R 7.D.u.d.c.j.b.-Xb.j.2.5.2.2.2.2.1.5.j.j.j.j.j.j.j.x./.^.y.A.y q Y ,.mXmXmXmXmXnXnXnX",
"< K.MX$X+XT < 8 w 8 < :.hXhXhX+XY 2 @ < 0 0 X.7.e.d.x.j.z.z.j.j.j.g.g.j.g.g.g.g.j.g.j.j.j.j.j.x.l.i.y.r.4 8 w &.hXhXyXyXtX$X%X%X",
"U.MXyX>.! < w 8 Y w T tXhXhXW.:.~ e @ < @ @ R o.e.d.s.j.j.j.z.z.j.j.j.j.j.g.g.j.j.j.j.j.z.j.z.g.d.i.D.` < w 1 ! U.Y.V.V.V.B.B.B.",
"hXcXU.4 @ 8 8 q 0 R tXmXuXK.! T < + + + X . 3 ' e.9.a.f.j.z.z.f.g.g.g.j.j.g.c.c.j.f.f.f.g.j.z.s.9.t.y.C < 9 1 Y X.~ { X.O.O.B.F.",
"NX+X0 @ @ w w w 1 $XbX@XY w @ $ $ o o o o o @ Q =.7.9.0.g.j.s.1.3.3.5.g.j.j.f.5.3.1.2.2.5.j.j.s.9.t.q.t 8 w w 0 ! *.W.,...[ C.9X",
"tXR @ @ 1 w w < :.$X~ < e @ X X X o o o o X o 0 ;.=.7.9.x.a.1.1.1.1.1.3.3.3.3.2.f.g.j.g.j.j.z.s.t.u.E > 4 w w ~ T V.9XU.! { F.%X",
"0 + @ 8 ~ 8 w w +.0 @ $ o @ X o o o o o o X . + Q 7.6.8.l.z.j.z.j.j.j.j.j.j.j.c.c.c.j.j.j.j.a.a.t.p.* 3 1 @ 8 ~ T >.&X*.T Y U.&X",
"$ # e ! Y w q 0 < @ @ + + @ + X o o o o o o o # 9 ) 7.6.d.d.k.z.j.j.j.j.j.j.j.j.g.j.j.j.g.k.s.8.i.u & 2 : @ 8 ~ ! %.&.Y Y 0 T Q ",
"@ 8 8 < 1 w 0 8 @ @ @ @ @ @ @ + X o o o o o   + R C ) 7.w.t.s.l.j.j.j.j.z.z.j.j.g.j.z.z.j.k.w.q.E & % @ @ @ 8 ! Y 0 0 Y Y Y Y G ",
"+ w < < T @ @ @ < @ @ @ @ @ @ @ + o o o o o X + ! >.E ) 6.w.w.s.z.z.z.j.j.z.j.j.j.j.x.x.d.s.q._ > # % @ @ @ 8 Y Y Y Y Y Y Y p p ",
"T w 1 ! 0 @ @ @ @ @ @ @ @ @ @ @ +   o o o X .   T Y.,.E u _ d.u.s.d.c.z.z.c.j.c.x.x.).d.d.8._ r & & @ @ < w e z ! 8 8 8 w p p p ",
"r.G 2 e @ @ @ @ @ @ @ @ @ @ @ @ @ + o X o       Y r.A.T._ C ( 8.d.d.s.s.a.s.a.s.d.d.J.e.6.i * * & @ @ @ < < # w ! T 8 5 2 8 T Y ",
"p 1 @ @ @ @ @ @ @ @ @ @ @ @ @ @ @ + o o o o X   @ &.Y.Q.R.*.y E =.q.8.p.p.p.8.0.8.w.6.u r * * & % < < @ @ @ @ 2 ! ! 0 q Y ~ >.:.",
"2 @ @ @ @ @ @ @ @ @ < @ @ @ @ @ +   o X X X o X o < >.W.Q.Y.;.` y i ( ( E ( ( i i r * r r * : % < 8 1 < @ @ @ 1 T T T %.I.v.!.E.",
"w 1 2 @ @ @ @ @ @ w w < @ @ @ @ + o o   @ +   X o   2 Y.W.U.I.v.r.` ( i t t r = = * u u > > % % @ @ @ 1 8 w 8 @ < ~ 0 ~ &.*.:.K.",
"0 e @ @ @ @ < w w w 8 1 @ @ @ + X o o   + @   o o X   w I.U.:.%.E t r * = O = i 8.*X X4XE . .   $ @ @ % e < w 1 + %.Y 1 ! %.v.>.",
"< 1 < @ @ < < < < < < < @ @ @ $ o o o o X X X O o o X   @ Y p 9 & = = * u _ s.*X-X=X*X5XY.      @ 2 2 < 2 < 8 T e E ~ 8 T T ! ~ ",
"@ w < @ @ 1 e @ @ @ @ @ @ @ @ $ o o X   V ` : . o o o o     = e = p <.d.<X1X:X*X*X*X=X}.^ o $ @ 8 w 8 8 8 1 8 E w G ~ Y 8 Y T %.",
"1 8 < @ @ @ @ @ @ @ @ @ @ @ @ $ o X   9 |.|.u . X o X o     O p h.c.*X:X1X,X>X:X*X;X~.) # @ @ @ 0 1 1 1 w w 8 p 0 p Y T Y Y Y ~ ",
"X < 0 1 @ @ @ @ @ @ @ < w @ @ +     2 T.].[.) . X o     @ p 0._.1X-Xb.-X,X,X;X;X).i.E * # @ @ @ 1 w w 8 w w 8 G Y 0 w Y T T Y Y ",
"  $ 8 1 2 e @ % @ + X + < @ @   + ^ .X.X^.'.E O X + 4 &.XX1X,X>X,X:X-X_.:X;X;XR.E 9 & % @ @ @ @ < 8 w < 2 0 1 w Y ! 0 0 p G p 4 ",
"  $ 1 1 w e + + + X @ < @ + 1 ~ R.@X;Xx.9._ r 3 ] E.$X0X1X>X>X,X,X,X>X_.XX#Xr.9 4 4 e % e < < < 2 8 w @ < q w 8 w < < 0 0 < @ e ",
"o + @ @ w <   + < 0 T ! p ~ E.@X<XXXd.<.<.8.l.XX3X3X2X2X>X>X1X1X1X1X<XXXT.' 4 3 w 8 @ @ < 8 8 8 w 8 8 @ < 8 w w < + @ + + @ @ @ ",
"X + e @ @ @ e G G p p Y Y ] E.+XT.e.9.J.4X1X1X1X>X1X2X2X1X1X1X4X1X#Xv.] y 4 @ e 8 w < $ < 8 w w w 8 w w w w w @ @ @ @ @ X + @ @ ",
"X X X $ @ @ z Y Y Y Y Y Y 0 ~ Y.'.[.2X3X5X1X1X4X1X1X3X1X1X1X1X XT.' 9 1 9 < < 9 8 @ @ < w w @ 1 8 8 w w w w w < X + e @ @ @ + X ",
"o o o X @ p T p Y Y Y Y Y Y T =.2X2X2X2X:X,X5X5X5X3X1X1X1X;X X' t 9 0 w 1 2 1 2 @ 1 @ 1 8 2 @ 2 5 < < 1 w w 8 <   X $ + @ @ @ + ",
"o o + 0 Y Y Y Y Y Y Y Y Y Y ! Q E.tXtX2X1X5X7X7X7X7X>X4X=Xi.t O O @ < w 8 4 4 1 < w < < 8 q < 1 w @ < 2 w w w @ X $ X X @ @ @ @ ",
"o $ 0 Y Y Y Y Y Y Y Y Y Y Y Y T %.$XtXuX7X7X7X7X7X5X:X*X X7.> # $ o o 2 1 Y 0 w 8 w @ 2 1 8 T 0 w 8 8 @ @ 0 w X + @ @ @ @ $ X @ "
};
