/* XPM */
static char *_ab7f063b2ca4f0eab555e6301d7bd9cqz5zTHkrMhcRHMNU[] = {
/* columns rows colors chars-per-pixel */
"64 64 6 1 ",
"  c black",
". c #3FCC14",
"X c #F99104",
"o c #FFF700",
"O c #05C2D4",
"+ c white",
/* pixels */
"OOOOOOOOOOOOOOOOOOOOOOOOOOOOOOOOOOOOOOOOOOOOOOOOOOOOOOOOOOOOOOOO",
"OOOOOOOOOOOOOOOOOOOOOOOOOOOOOOOOOOOOOOOOOOOOOOOOOOOOOOOOOOOOOOOO",
"OOOOOO......OOOOOOOOOOOOOOOOOOOOOOOOOOOOOOOOOOOOOOOOOOOOOOOOOOOO",
"...O..OOOOOO.OOOOOOOOOO....OOOOOOOOO.OOOOOOOOOOOOOOOOOOOOOOOO...",
"OO..OOOOOOOO...........OOO..OOOOO...O.OOOOOOOOOOOOOOOOOOOOOO..OO",
"OOOOOOOOOOOOOOOOOOOOOOOOOOOO.....OOOO.OOOOOOOOOOOOOOOOOOOOOO.OOO",
"OOOOOOOOOOOOOOOOOOOOOOOOOOOOOO.OOOOOO.OOOOOOOOOOOOOOOOOOOOO.OOOO",
"OOOOOOOOOOOOOOOOOOOOOOOOOOOOOOOOOOOOO..........OOOOOOOO....OOOOO",
"OOO..OOOOOOOOOOOOOOOOOOOOOOOOOOOOOOOOOOOOOOOOO.OOOO....OOOOOOOOO",
"OO.O..OOOOO..OOOOOOOOOOOOOOOOOOOOOOOOOOOOOOOOO.....OOOOOOOOOOOOO",
"...OO..OO..O.OOOOOOOOOOO                       OOOOOOOOOOOOOO...",
"OOOOOO....OO..OO....OO  +++++++++++++++++++++++      OOOOOOO..OO",
"OOOOOOOOOOOOO...OOO..O ++++++     + +++++ ++++++++++   OOOOO.OOO",
"OOOOOOOOOOOOOOOOOOOO. + ++ ++++ +++ +++++ ++++ +++ +    OOO..OOO",
"OOOOOOOOOOOOOOOOOOOOO + +  ++++ +++ +++++ ++++  +  + +++  O.OOOO",
"OOOOOOOOOOOOOOOOOOOO ++   +++++ +++ +++++ ++++ + + + ++++  .OOOO",
"OOOOOOOOOOOOOOOOOOOO ++   +++++ +++ +++++ ++++ +++ +    ++ OOOOO",
"OOOOOOOOOOOOOOOOOOOO ++ +  ++++ +++ +++++ ++++ +++ + ++++++ OOOO",
"OOOOOOOOOOOOOOOOOOOO ++ ++ ++     +     +    + +++ +    +++ OOOO",
"OOOOOOOOOOOOOOOOOOOO ++++++++++++++++++++++++++++++++++++++ OOOO",
"OOOOOOOOOOOOOOOOOOOO ++++++++++++++++++++++++++++++++++++++  OOO",
"OOO....OOOOOOOOOOOOO +++++++++++++++++++++++++++++++++++++++ OOO",
"OOO.OO.OOOOOOOOOOOOO ++++++++++  ++ +     + ++++++++++++++++ OOO",
"OO.OOO.OOOOOOOOOOOOO ++++++++++   + + +++ +  ++++++++ ++++++ OOO",
"OO.OOOO.OOOOOOOOOOOO ++++++++++ + + + +++ ++ ++  +++  ++++++ OOO",
"OO.OOOO.OOOOOOOOOOOO ++++++++++ +   + +++ ++      +  +++++++ OOO",
"...OOOOO........OOOO ++++++++++ ++  + +++ +++  ++ + +++++++  OO.",
"OOOOOOOOOOOOOOO.OOO. ++++++++++ ++  + +++ +++  ++   +++++++ ...O",
"OOOOOOOOOOOOOOO..... ++++++++++ +++ +     ++++ +++  ++++++ OOOOO",
"OOOOOOOOOOOOOOOOOOOO ++++++++++++++++++++++++++++++++++++ OOOOOO",
"OOOOOOOOOOOOOOOOOOOO ++++++++          ++++++++++++++     OOOOOO",
"OOOOOOOOOOOOOOOOOOOO  ++     OOOOOOOOOO               OOOOOOOOOO",
"OOOOOOOOOOOOOOOOOOOOO +  OOOOOOOOOOOOOOOOOOOOOOOOOOOOOOOOOOOOOOO",
"OOOOOOOOOOOOOOOOOOOOO   OOOOOOOOOOOOOOOOOOOOOOOOOOOOOOOOOOOOOOOO",
"OOOOOOOOOOOOO          OOOOOOOOOOOOOOOOOOOOOOOOOOOOOOOOOOOOOOOOO",
"OOOOOOOOOOOO  oo o oo   OOOOOOOOOOOOOOOOOOOOOOOOOOOOOOOOOOOOOOOO",
"OOOOOOOOOOOO  oo o oooo  OOO....OOOOOOOOOOOOOOOOOOOOOOOOOOOOOOOO",
"OOOOOOOOOOOOOXXooooooooo OOO.OO.OOOOOOOOOOOOOOOOOOOOOOOOOOOOOOOO",
"OOOOOOOOOOOOXXXXooooooo  OO.OOO.OOOOOOOOOOOOOOOOOOOOOOOOOOOOOOOO",
"OOOOOOOOOOOXXXX  oooo   OO.OOOOO.OOOOOOOOOOOOOOOOOOOOOOOOOOOOOOO",
"OOOOOOOOOOOOOOOO     OOOOO.OOOOO.............OOOOOOOOOOOOOOOOOOO",
"OOO..OOOOOOOOOOOOOOO OOOO..OOOOOOOOOOOOOOOOO.OOOOOOOOOOOOOOOOOOO",
"OO.O.OOO.......OO     ....OOOOOOOOOOOOOOOOOO.OOOOOOOOOOOOOOOOOOO",
"O.OO....OOOOOO..  ooo        OOOOOOOOOOOOOOO.OOOOOOOOOOOOOOOOOOO",
"..OOOOOOOOOOO   oooooooooooo  OOOOOOOOOOOOOOO..OOOOOOOOOOOOOOO..",
"OOOOOOOOOOOO  ooooooooooooooo OOOOOOOOOOOOOOOOO.......OOOOO...OO",
"OOOOOOOOOOOO oooooooooooooooo OOOOOOOOOOOOOOOOOOOOOOOO.....OOOOO",
"OOOOOOOOOOOOO ooooooooooooooo OOOOOOOOOOOOOOOOOOOOOOOOOOOOOOOOOO",
"OOOOOOOOOOOOO  oooooooooooooo OOOOOOOOOOOOOOOOOOOOOOOOOOOOOOOOOO",
"OOOOOOOOOOOOOO ooooooooooooo  OOOOOOOOOOOOOOOOOOOOOOOOOOOOOOOOOO",
"OOOOOOOOOOOOOO  oooooooooo   OOOOOOOOOOOOOOOOOOOOOOOOOOOOOOOOOOO",
"OOOOOOOOOOOOOOOO  ooooo    OOOOOOOOOOOOOOOOOOOOOOOOOOOOOOOOOOOOO",
"OOOOOOOOOOOOOOOOO       OOOOOOOOOOOOOOOOOOOOOOOOOOOOOOOOOOOOOOOO",
"OOOOOOOOOOOOOOOOOOOOOOOOOOOOOOOOOOOOOOOOOOOOOOOOOOOOOOOOOOOOOOOO",
"OOOOOOOOOOOOOOOOOOOOOOOOOOOOOOOOOOOOOOOOOOOOOOOOOOOOOOOOOOOOOOOO",
"OOOOOOOOOOOOOOOOOOOOOOOOOOOOOOOOOOOOOOOOOOOOOOOOOOOOOOOOOOOOOOOO",
"OOOOOOO.........OOOOOOOOOOOOOOOOOOOOOOOOOOOOOO......OOOOOOOOOOOO",
"OOOOO..OOOOOOOOO.OOOOOOOOOOOOOOOOOOOOOOOOOO...OOOOOO............",
"..OO.OOOOOOOOOOOO.OOOOOOOOOOOOOO......OOO..OOOOOOOOOOOOOOOOOOOOO",
"OO..OOOOOOOOOOOOO.OOOOOOOOOOOO..OOOOOO...OOOOOOOOOOOOOOOOOOOOOOO",
"OOOOOOOOOOOOOOOOO.OOOO........OOOOOOOOOOOOOOOOOOOOOOOOOOOOOOOOOO",
"OOOOOOOOOOOOOOOOOO....OOOOOOOOOOOOOOOOOOOOOOOOOOOOOOOOOOOOOOOOOO",
"OOOOOOOOOOOOOOOOOOOOOOOOOOOOOOOOOOOOOOOOOOOOOOOOOOOOOOOOOOOOOOOO",
"OOOOOOOOOOOOOOOOOOOOOOOOOOOOOOOOOOOOOOOOOOOOOOOOOOOOOOOOOOOOOOOO"
};
