/* XPM */
static char *ee6564ec11f64857f62859c17a1af712JzHmhy9UqOJAKDgM[] = {
/* columns rows colors chars-per-pixel */
"64 64 251 2 ",
"   c #0A0202",
".  c #160704",
"X  c #18110C",
"o  c #1C1918",
"O  c #0C1110",
"+  c #270A07",
"@  c #350C06",
"#  c #28140A",
"$  c #361201",
"%  c #3A1500",
"&  c #3D1901",
"*  c #39160A",
"=  c #370E17",
"-  c #2A1413",
";  c #2B151B",
":  c #24191B",
">  c #261816",
",  c #351619",
"<  c #2A0B10",
"1  c #2B251B",
"2  c #392618",
"3  c #3F220C",
"4  c #381A24",
"5  c #292928",
"6  c #372B25",
"7  c #383733",
"8  c #12251F",
"9  c #421C04",
"0  c #431D0C",
"q  c #431B16",
"w  c #45220A",
"e  c #4B260B",
"r  c #4D290D",
"t  c #462206",
"y  c #51290E",
"u  c #4D2A12",
"i  c #472818",
"p  c #522D12",
"a  c #532B1B",
"s  c #553015",
"d  c #5B361B",
"f  c #5E391D",
"g  c #563319",
"h  c #4A341B",
"j  c #782A1C",
"k  c #613B1E",
"l  c #623017",
"z  c #642A14",
"x  c #472726",
"c  c #4A3526",
"v  c #5C3B23",
"b  c #573827",
"n  c #473D33",
"m  c #563731",
"M  c #633E22",
"N  c #653C29",
"B  c #773A26",
"V  c #623D36",
"C  c #69190B",
"Z  c #3E4036",
"A  c #5C412B",
"S  c #564437",
"D  c #4A4739",
"F  c #654125",
"G  c #65432A",
"H  c #6B462B",
"J  c #6D492D",
"K  c #694326",
"L  c #724A2E",
"P  c #694934",
"I  c #734E32",
"U  c #794C36",
"Y  c #695239",
"T  c #755135",
"R  c #795437",
"E  c #7A563A",
"W  c #7D593D",
"Q  c #75543B",
"!  c #3C6859",
"~  c #524F4B",
"^  c #665646",
"/  c #785A44",
"(  c #695957",
")  c #6E5047",
"_  c #7B654B",
"`  c #796A57",
"'  c #6F6958",
"]  c #53766B",
"[  c #7D7D7B",
"{  c #6E726B",
"}  c #506458",
"|  c #89382A",
" . c #854835",
".. c #974839",
"X. c #835A3F",
"o. c #835E42",
"O. c #885C46",
"+. c #985744",
"@. c #885F5B",
"#. c #A85A4B",
"$. c #856245",
"%. c #896346",
"&. c #8B664A",
"*. c #8D694D",
"=. c #85674B",
"-. c #93674C",
";. c #876A55",
":. c #936E52",
">. c #9A6A52",
",. c #967154",
"<. c #9A7356",
"1. c #9A755A",
"2. c #9E795C",
"3. c #96735A",
"4. c #897157",
"5. c #A96955",
"6. c #B76B5B",
"7. c #A3755B",
"8. c #A17C5E",
"9. c #AC735C",
"0. c #B4725E",
"q. c #A6614E",
"w. c #8B7666",
"e. c #9A7965",
"r. c #886F68",
"t. c #A27D61",
"y. c #A97A64",
"u. c #B87764",
"i. c #A07E74",
"p. c #CB7D6E",
"a. c #C47667",
"s. c #C97668",
"d. c #788477",
"f. c #588277",
"g. c #85847A",
"h. c #998B76",
"j. c #A58164",
"k. c #A98366",
"l. c #AB856A",
"z. c #AE896D",
"x. c #A5846C",
"c. c #BC856D",
"v. c #B28B6F",
"b. c #A98974",
"n. c #B38D71",
"m. c #B98B72",
"M. c #AC927A",
"N. c #B69174",
"B. c #BA967A",
"V. c #BD997D",
"C. c #B79378",
"Z. c #C4826E",
"A. c #CA8774",
"S. c #D58778",
"D. c #C4977D",
"F. c #D3927E",
"G. c #739488",
"H. c #75A691",
"J. c #5F9283",
"K. c #888886",
"L. c #97958A",
"P. c #959595",
"I. c #919388",
"U. c #B69885",
"Y. c #A8958A",
"T. c #8EA69D",
"R. c #AAA69E",
"E. c #B8A89A",
"W. c #BCA68E",
"Q. c #9BBAB1",
"!. c #8CACA1",
"~. c #A6A6A5",
"^. c #AAAAAA",
"/. c #AAA7A4",
"(. c #B5B5B5",
"). c #BCBCBC",
"_. c #BCB8B6",
"`. c #B2B3AD",
"'. c #C29D82",
"]. c #CB9D84",
"[. c #D99884",
"{. c #C39F91",
"}. c #E29283",
"|. c #E8998A",
" X c #E18F81",
".X c #C6A184",
"XX c #CAA68A",
"oX c #D4A78D",
"OX c #C8AB95",
"+X c #D6AE93",
"@X c #D7B295",
"#X c #D9B496",
"$X c #DAB699",
"%X c #DDBA9C",
"&X c #D7B299",
"*X c #D7B78D",
"=X c #E7A894",
"-X c #E1BC9D",
";X c #E6B59A",
":X c #F6A697",
">X c #C8B5A8",
",X c #C3BCBA",
"<X c #C6BBB4",
"1X c #D7BCA7",
"2X c #E2BDA1",
"3X c #EFBBA3",
"4X c #F9B6A3",
"5X c #B5C1BC",
"6X c #9CC4B9",
"7X c #C5C1BD",
"8X c #D5C7B6",
"9X c #E6C1A5",
"0X c #EBC7AA",
"qX c #EDC9AB",
"wX c #E9C3A7",
"eX c #F2CBAE",
"rX c #EBCCB3",
"tX c #F2CEB2",
"yX c #F8CCB1",
"uX c #F4D1B5",
"iX c #FAD6BA",
"pX c #E3C098",
"aX c #BEBEC0",
"sX c #C1BED1",
"dX c #B5C9C2",
"fX c #C3C3C3",
"gX c #CCCCCC",
"hX c #C7C5C8",
"jX c #D7CEC6",
"kX c #D1D0CE",
"lX c #DDD7C8",
"zX c #CBC9D4",
"xX c #D1CFD5",
"cX c #D1CFDC",
"vX c #CED7D4",
"bX c #D0D1D1",
"nX c #D1D1D1",
"mX c #D7D8DB",
"MX c #FFDEC2",
"NX c #E5DBC9",
"BX c #F2E4D4",
"VX c #C7C2E0",
"CX c #D2CEE8",
"ZX c #E4E4E4",
"AX c #E5EBE6",
"SX c #FCF9E9",
"DX c #ECF5F1",
"FX c #F9F9F9",
"GX c #F6F8F5",
"HX c #F5EFE9",
"JX c #D9E1DF",
/* pixels */
"gXxXCXVXsXcXzXsXR.[ K.^.).hXbXbXnXhX).(.`.).).,XsX<X1X$X2X1XpXrX8X5XhXnXkXkXnXnXnXkXnXkXZXnXbXbXbXnXhX).).(.^.~.^.).xX).).^.^.^.",
"kXxXCXVXsXxXgX5X~.[ P.^.).zXbXbXnXhX).(.^.`.`.`.`.E.M.V.B.V.W.OX8X<X7X8X7X7XgXkXnXkXnXxXZXmXbXbXgXnXhX_.).(.~.^.^.).fXaX).^.~.(.",
"kXcXCXVXsXcXzXaXR.[ K.~.).gXbXbXgX).5X(.~./.E.U.b.;./ W W *.1.j.M.W.OX>X1X>X>XgXkXkXkXkXnXnXkXkXnXnXhX).aX_.~.^.^.).hX).).^.~.(.",
"kXcXCXVXsXcXgXaX~.[ P.^.).gXbXbXfX<X,X(.R.E.M.:.;.=.:.<.%.$.&.%.2.C.U.U.XXOX>X>XhXjXkXkXkXnXkXkXnXnXfX).aX(.~.~.^.).nX,X).^.~.(.",
"gXxXCXVXsXcXfXaX~.[ K.~.).gXbXgX7X>X>XW.U.M.,.I $.=.X.R F F L R o.*.2.k.V.W.M.U.E.8XlXjXkXkXnXnXnXnXhX).).(.~.^.^.).kX).).^.^.(.",
"nXnXCXzXsXzX).).~.[ K.~.).gXgX_.7X>XW.M.b.z.j.W &.%.W R R X.o.$.*.*.&.$.&.*.e.k.e.b.1XjXjXkXxXnXnXnXhX_.5X(.~.^.^.).gX_.7X^.~.(.",
"nXbXcXzXsXzX).).~.[ P.~.).fX5X8X>XW.M.j.1.V.B.v.2.%.$.I R ,.%.&.:.8.j.<.%.R T W :.1.x.1XNXjXnXnXnXnXgX).,X(.^.~.^.).kXsX).^.~.(.",
"nXnXxXhXfXgX).).P.[ P./.)._.<X>Xh.x.j.,.j.l.j.l.2.&.:.&.o.&.<.2.l.n.l.8.<.%.o.I J o.4.e.OXjXjXkXgXgXdX).)._.~.^.^.,XkXdX).^.^.(.",
"bXbXvXgXfXgX_._.~.[ P.~._.<X>Xw.x.k.,.,.2.,.j.v.v.2.8.&.T L J J R *.*.2.*.$.%.R J J L W ;.U.8XjX7X).).).).(.~.^.^.).gXdX,X^./.(.",
"gXbXbXhX_.).).sX~.[ L./.<XE.e.,.2.2.*.,.k.C.v.v.l.2.2.*.T R R E W <.2.:.o.R %.o.R F f J O.;.E.jX7XhXhX).).(.~.^.^.).gXfX).^.~.(.",
"bXbXbXhX).).).).~.[ I./.W.h._ %.X.%.&.k.V..X.XXXXX.XN.v.j.2.8.8.*.*.j.8.$.L k F T L K F I H 4.>X<X,X).).).(.^.~.^.).bXnXfX^.~.(.",
"bXbXbXhX_.).,XdX~.[ I./.g._ &.R I $.k.V.XX#X-XeXqX$X$X%X$X$XXXC.v.z.B.V.k.,.R f k F J R p g P e.>X,X_.).).).~.~.^.).bXgXfX^.~.(.",
"bXbXbXhX_.).).,XR.g.I.h._ _ R I R 2.B.*X*XpXqXqXqXwXeXeXqXeX%X$X*XD..XC.v.,.$.$.d e f M M r d Q Y.sX>X(.)._.^.^.^.).gXbXaX^./.(.",
"bXbXnXhX).).).5XR.I.g.^ / J f J $.k..X#X%XqX0XqXqXqXqXiXeXwXqXqXqXpX-XwX9X-XXXj.X.s e e k k r s O.E.,X_.)._.~.~.^.).bXbXsX^.~.(.",
"bXbXbXhX).).5X_.T.g.' _ J f J W *.N.%X%XqXqXqXqXqX0XqXeXqXqXqXqXqXqXwXqXqXuXtX9XB.W s e r k k k V r.<X<X).(.~.^._.).nXbXfX^.~.(.",
"bXbXbXgX_.).<X5XR.g.` Y f k k T j.+X2XwXqXqX0X0XqXqXqXqXqXqXqXqXqXqXqXuXiXiXiXMXwX*Xj.p e r f k M P i.<X).(.~.^.`.).gXbXfX^.~.(.",
"bXbXbXgX_.).).).R.` _ h A k M *.].2X2XtXqXqXqXqXqXqXqXeXqXqXqXwXqXqXqXqXtXtXtXqXqXiXuXv.p e r f M d / E.,X_.~.^.(.aXnXxXdX^./._.",
"gXbXbXhX).5X5X_.L.^ A A g d I z.@X&X$X2X%X-X2X%X2XqXqX-XwXqXqXqXqX0XqXqXqXqXqXqXqXpXqXuXv.s r r p y d b.,X(.~.^.).aXnXbXsX/.~.(.",
"bXbXbXgX).).,X`.g.S m c i b >..X#X#X#X#X#X&X@X@X@X-XqXwXwXqXqXwX0X0XqXqXqXqXqXqXqXqXuXqXuXj.t e e e w Y `.)./.^._.).bXnXsX^.~.(.",
"bXbXbXhX).).)./.' n b i a Q z.&X#X#X#X#X#X#X#X#X2X2XqXqXqXqXqXtXqXtXtXwXqX0XqXqXqXpXpXpXpXD.W t r u 3 c L.(.~.^.).).gXnX<X^.~.(.",
"bXbXbXhX_.).).L.Z Z 3 h v $.B.#X#X#X#X#X#X%X2X2XqXqXqXwXqXuXqXqXqXiXiXqXuXqXqXqXqXpX*X*X*X*XF.F e e u 2 ' ^.~.^.5XfXbXbX5X^./._.",
"bXbXbXgX).).,Xd.Z 5 1 h v :.V.@X#X+X@X#X#X%XeXeXqXqXqXqXqXuXeXwXqXtXtXtXuXqXtXqXqXqXpX*X*X*XpX<.t p e * S R././.7XbXbXkXfX^.~.(.",
"bXbXnXhX).5X(.' Z 1 2 c P :.V.oX#X+XoX#X@X%X9X9X9X9X9X9XqXqXqXqXqX0XqXqXqXtXiXqXqXqXqXqX#X@X-XC.f e t & u w././._.hXkXkXsX^.~.^.",
"kXbXnXgX_.7XE.} 7 1 6 b T :.B.OXoX#X@X%X%X#X@X@X#X@X@X#X9X9XqXqXqXqX0XwXwXwXpXqXwXqXqXqX-X+X$XU.H & u w & _ R.~.^.).hXgX7X`.P.~.",
"bXbXgXfX).aXP.~ 5 6 6 S / 3.C.$X%X2XtXiXiXtX$X$X$X$X$X#X#X#X9X9X0XqX%X#X$X&X2XuXuXuXuXiXiXqX2X+X*.u e u e Y Y.P.~._.).).).^.P.P.",
"gXbXfX).).aX[ 7 5 5 7 ^ ^ b.OXOXW.U.z.1.:.*.$.%.1.C.'.XX'.V.+X#X*X.XXXoXXXOXz.;.E $./ o.$./ / O./ d i i 3 m K.P.P.~.(._./.~.^.^.",
")._.).(.~.^.} 5 5 7 n n ~ ( ( 4 q V N H I H d d r 0 g Q / 3.l.v.M.j.e.;.b x q a A $.&.,.2.t.e.b + + # c 3 c L.(.dXhXsX7XfXfXfXfX",
").5X(.~.^.^.Z o 8 ~ Z K.( O . n Y.b.e.:.*.E K K M M d i $ h b b P A g $ q a V H F H E &.2.t.C.{.V .   6 2 3 R.NXZXZXZXZXZXZXZXZX",
"ZXZXAXJXZX_.5 o 5 5 ~ G.n X 4 Y.b.3.*.%.&.W I L k M M N m . . .   . . i N N M v F I I T T / *.N.c - . 2 i # I.mXZXZXZXJXZXZXZXZX",
"FXFXFXFXFX^.6 o o o > > n 6 x Y.i.-.*.$.Y b h a u p N P ( 6   n ~ # # A M v i i h A G T T O.o.b.P * # 1 $ # [ mXvXvXvXvXvXvXvXvX",
"GXGXGXGXFX/.c S x i h 2 r.) m Y.t.o.G b S 1 6 , x a N P r.m # Y.rX/ + b A 2 2 6 > 2 2 i f R W C.e.i 2 q i i ~ 5XdXdXdXQ.Q.Q.Q.Q.",
"GXDXFXDXFXK.c r.U v P P U.e.V U.:.T M c ^ D 6 6 V m b U @.x b 0XMX1X3 A c x D 1 X n ^ w d J W m.'.a q x y.;.7 T.Q.Q.!.!.T.H.G.d.",
"DXDXDXAXJX( 6 Q T I F W &X'.N U.,.%.W / _ Y h c b N L / r.q ;.tXtXMX/ a b c A h c Y Q N F H 8.'.XXG N a O.y.i R.ZXmXvXdXhXdXdX5X",
"6XdX6X^.~.D i P I F d *.&X1XN b.N.1.2.2.:./ R H N N o.3.@.q b.qXuXMXy.u I J H J H E %.&.k.U.@X2Xb.J 1.B B ..0 b.HXDXFXDXAXZXZXZX",
"] ! { [ { 2 i Y =.H l ,.&XwX;.*.2XN.j.j.t.:.,.&.-.*.<.t.) B .X*XuXMXXXv &.$.*.3.<.z.U.'.-XqX9XqXo.1.'. .+. .9 r.HXFXFXFXGXDXDXDX",
"J.J.J.w.{ h a / t.H g &.&X$X&XG #XXXC.D.C.x.z.z.z.n.i.y.l e.D.oXiXiX9X3.T V.C..XoX&X0XrXqXqXuXD.F 1X].5.u.| 9 / BXGXGXFXFXFXFXFX",
"J.J.] K.{ q q O.o.F p $.%X#XwX1.T &XOXXXV.n.n.n.n.z.C.N W D.D.=X3XyX3X=XH O.+XOX$X2X3X0XwXeXXXH B.2X'.+.p. .$ b NXFXSXFXFXFXFXFX",
"J.f.f.K.( = @ O.*.I K 2.$X#X&XwX1.I z.U.C.n.n.k.x.%.b d z.V.F.*X3XyX4X=XA.y  .l.'.'.].'.m.<.X.C.$X-XB.B u.U @ i 8XSXHXFXFXFXFXFX",
"! ] f.[ ( 4 @ P &.T 1.l.#X#X#X*X2Xn.$.X.I H K f d f I <.j.B.*XF.3X4X4X=X|.5.B B O.+.+.O.5.m.oX[.oX;Xu.B u.B @ u W.SXHXFXGXGXFXFX",
"! ] [ K.( = < b ;.R v.z.@X+X@XXXD.XX'.n.t.:.o.O.O.1.y.7.D.F.;X=X=X4X4X:X=Xa.5.5.6.u.p. X[.[.[.].oX=Xc.-.y.y % i j.MXHXFXFXGXFXGX",
"] { d.g.S # < x e./ y.m.D..XD..X.XXXB.z.N.v.9.9.0.0.9.9.F.D.D.D.[.}.}.S.|.S.a.a.6.s.p.p.p.S.F.F.D.].u.A.>.$ * a Q >XrXlXlXAXJXAX",
"G.[ g.{ D X ; , i.m.e.n.U..X.X.X.XV.B.z.n.m.c.u.6.6.6.5.9.q.<.7.5.5.#.+.s.S.p.p.p.p.p.p.p.p.Z.Z.m.n.V.&XN @ @ a T 4.d.' } ' ' } ",
"P.K.r.` D X : ; r.{.C.z.D..X.X.XC.v.v.n.v.c.p.p.Z.Z.Z.#. .l I -.o.B j C | p.|. X X Xp.p.A.Z.Z.m.v.n.+Xl.a @ * = F _ h 2 > O o O ",
"P.K.{ w.c X : # ) Y.b.1.D.XX.XN.z.v.z.v.k.7.6.0.S.Z.Z.#.|  .I L U B j j | |.:X:X X X|.p.Z.Z.c.c.v.v.C.:.p 0 = = p *.4.h 1 o 8 O ",
"P.K.r.;.c > > o > ` i.y.V.XX.XC.z.n.k.2.2.7.0.Z.Z.Z.0.9.-.<.>.L  . .| +.#. X:X:X:X|.}.A.Z.c.c.v.v.n.n.G u w * @ r W j.Y 6 5 8 O ",
"{ { ` ` m # : : > , P / k.XX.XC.v.v.k.1.2.8.c.Z.c.9.9.9.<.j.q.+.+.+...#.s.|.|.:X:X:X[.A.c.m.t.k.k.*.R p e e @ $ & f _ j.w.{ ] ! ",
"D S _ _ x < ; : : < + + c XX.XC.v.v.j.t.v.v.n.n.k.k.<.j.7.9.9.q.#.6.a.s.S.|.}.|.}.[.[.m.v.n.z.v.v.r & J s e $ $ & r R M.h.T.H.H.",
"D ^ ;._ i # : : : : ; . + Y.XXN.v.v.l.v.l.8.t.t.j.j.j.j.,.>.q.#.#.#.a.p. X|.}.S.S.[.].m.v.v.v.n.t.e p G g e $ % e e F j.h.g.H.H.",
"Y ' _ _ 2 > o o o 1 : :   ` OXD.N.v.n.n.z.j.,.*.W $.$.J K B j | | | | | ..#.0.>.7.k.m.v.v.v.v.N.:.r M M d r t & e 9 u =.h.M.H.H.",
"Y _ =.Y 2 > o 1 o : : :   m OXXXV.N.z.n.n.n.,.W k k k J L B | j C | | | j j z l k %.v.n.z.v.N.v.W p N f d r t % w t e G :.h.!.d.",
"W 4.=.J - > o : ; ; ; :   # M.W.XXB.z.n.n.z.,.:.<.k.<.j.9.q.+.#.#.6.F.|.S.s.6.5.X.-.v.m.v.N.k.j.F K J d d e e t & e e s J j.T.d.",
"_ =._ f 2 > : ; ; 4 4 ; X   / U.C.N.v.v.z.z.k.z.k.v.k.<.q.#.#.6.6.6.a.a.#.a.S.=XoXn.k.j.j.j.8.:.k R R k k y r e t e e e k d.d.d.",
"_ $.$.k 2 # ; 4 = 4 4 ; .   6 Y.b.v.v.v.v.n.v.v.v.v.k.j.*.-. ...........#.6.s.S.A.k.9.7.2.2.8.R F R W K k d e r r r p & s W d.d.",
"*.=._ F 2 # = = = = x 4 X   > w.M.z.n.v.v.v.v.n.v.v.<.<.2.-.....| | ....6.6.6.s.u.9.7.<.:.<.&.s K J W J k k e p u r r $ p J 4.` ",
"*.$.$.K i < = = 4 = x 4 , . X S j.k.k.l.n.v.v.v.v.v.j.,.<.-.#.#...#...#.q.6.6.6.9.7.7.%.$.&.M & d H R k d d e r d r r & & G W W ",
"*.$.$.F 0 < = = 4 = x x , . . S 4.,.,.j.z.n.v.v.v.v.j.j.j.j.0.6.s.p.S.S.F.S.S.A.0.9.8.%.-.E $ w s F R r p k r e r u r & $ s I $.",
"$.%.%.F * = = = = ; < x ; . . m _ $.,.2.j.l.v.v.v.v.v.v.v.v.S.S.S.:X;X=X;X;X[.[.c.5.,.&.$.L $ u t F T p r k e r r e r & $ h H o.",
"=.%.$.N 0 = = = ; < ; 7 , - # 2 W *.$.%.<.j.z.l.v.v.v.v.v.Z.S.F.S.S.|.;X;X=X;XF.c.7.&.$.R K t e t H T s t p r y e e r & $ e f R ",
"$.=.$.M e q * = ; : ; 4 , > > 6 E 1.,.$.$.*.8.8.v.v.v.v.v.D.A.Z.p.s.s.A.F.F.F.oXc.1.$.R R d % % r I J r y M d p e e r e % t J X.",
"_ $.%.N e w * - ; ; : ; ; ; # h E *.,.,.$.%.%.2.j.v.v.v.j.<.9.9.s.6.6.6.a.Z.Z.v.<.I T %.X.p % $ p M f 9 % d d r e r r & % t H $.",
"$.=.$.J s w # , 5 : o : 6 4 - * J o.:.<.,.$.L R *.*.j.j.%.<.-.%.-.%.+.-.-.%.%.X.H I %.%.X.p % $ t d k 9 t g d & w % r & $ t H $.",
"$.=.$.K d t # > 7 : : o : ; = q K W :.j.j.,.$.X.L I $.$.*.-.X.I T R T I I I L k I &.%.&.R 0 $ e r g d y r p k r e % e & $ 3 M J ",
"%.W R K v 3 # > ; ; : ; : ; = * K $.*.j.j.,.*.$.:.W L I R T K k k K k F F F K L &.&.%.&.J & $ 0 r r y r t s k r r $ e u % w H I ",
"W T T J K i # : ; ; ; ; ; ; = 0 d R X.-.,.j.j.:.j.j.<.X.K L k k k k k F K I X.-.%.&.%.&.H & % t r e s 9 y p g 9 i % e u % 9 W *."
};
