/* XPM */
static char *c98ad8dc84b44804d4eb9ee0f3f251f47m2XyYdFmPNoC4i4[] = {
/* columns rows colors chars-per-pixel */
"64 64 251 2 ",
"   c None",
".  c #130B08",
"X  c #18130E",
"o  c #0E1214",
"O  c #1D1914",
"+  c #161616",
"@  c #23130B",
"#  c #29150A",
"$  c #2B1E0E",
"%  c #261B0E",
"&  c #331C0C",
"*  c #3B1B0D",
"=  c #241C12",
"-  c #2B1D13",
";  c #211913",
":  c #2C120B",
">  c #3B230D",
",  c #2D2212",
"<  c #27221B",
"1  c #332513",
"2  c #3A2411",
"3  c #352B1B",
"4  c #3A2C1B",
"5  c #372718",
"6  c #3C311F",
"7  c #2F200F",
"8  c #272623",
"9  c #392D22",
"0  c #373226",
"q  c #303333",
"w  c #44240D",
"e  c #492A0E",
"r  c #432B14",
"t  c #4A2B12",
"y  c #442B17",
"u  c #562A11",
"i  c #4C341B",
"p  c #463119",
"a  c #56381D",
"s  c #562C0D",
"d  c #673819",
"f  c #733D15",
"g  c #483527",
"h  c #543A23",
"j  c #5A3D23",
"k  c #563829",
"l  c #463F38",
"z  c #6C3E23",
"x  c #69421F",
"c  c #5A4128",
"v  c #554231",
"b  c #64432C",
"n  c #694427",
"m  c #734A28",
"M  c #684936",
"N  c #754D36",
"B  c #7A523C",
"V  c #7F542B",
"C  c #783C43",
"Z  c #3C4144",
"A  c #555352",
"S  c #6A564A",
"D  c #6D5A4E",
"F  c #665347",
"G  c #765847",
"H  c #6C5C53",
"J  c #655850",
"K  c #775A50",
"L  c #6C4C46",
"P  c #6D615A",
"I  c #766255",
"U  c #7B6354",
"Y  c #73645A",
"T  c #7B685B",
"R  c #736B69",
"E  c #88572B",
"W  c #89573A",
"Q  c #8B5837",
"!  c #996437",
"~  c #93602C",
"^  c #A66B37",
"/  c #B07539",
"(  c #803C41",
")  c #875C45",
"_  c #8B5552",
"`  c #8A634B",
"'  c #9B694C",
"]  c #976547",
"[  c #836C5D",
"{  c #886857",
"}  c #956E5C",
"|  c #986A56",
" . c #987259",
".. c #8F705F",
"X. c #A66F49",
"o. c #A9734A",
"O. c #B77B47",
"+. c #A66A5B",
"@. c #A87959",
"#. c #B57A57",
"$. c #9A6A65",
"%. c #8C7465",
"&. c #897467",
"*. c #947464",
"=. c #9B7B6C",
"-. c #987867",
";. c #8C7975",
":. c #9E7E71",
">. c #957B71",
",. c #846C65",
"<. c #A27D65",
"1. c #A47D6B",
"2. c #A87967",
"3. c #B77C6A",
"4. c #A47D71",
"5. c #A77A73",
"6. c #B77B79",
"7. c #AB6D69",
"8. c #925B61",
"9. c #C17D76",
"0. c #BA835B",
"q. c #AE8356",
"w. c #9D806E",
"e. c #9C8273",
"r. c #9B8577",
"t. c #9D907C",
"y. c #AC846C",
"u. c #A78369",
"i. c #B38A6B",
"p. c #BB8D6A",
"a. c #B88566",
"s. c #A48475",
"d. c #AC8473",
"f. c #A58C7D",
"g. c #AA8C7D",
"h. c #A88779",
"j. c #B48473",
"k. c #B48B73",
"l. c #B48C7C",
"z. c #BB8B7A",
"x. c #BA8974",
"c. c #BB937D",
"v. c #B8957A",
"b. c #B59273",
"n. c #C5874A",
"m. c #D4934B",
"M. c #C48A55",
"N. c #CA9259",
"B. c #D49653",
"V. c #D4995B",
"C. c #DDA15E",
"Z. c #C38B67",
"A. c #CA976B",
"S. c #D79A67",
"D. c #C58974",
"F. c #C39574",
"G. c #C4957C",
"H. c #C39B7C",
"J. c #CC9B7C",
"K. c #CA9776",
"L. c #D59C78",
"P. c #D78D72",
"I. c #DCA467",
"U. c #CDA17B",
"Y. c #DEAC7C",
"T. c #D7A578",
"R. c #E4AB6D",
"E. c #E3AD77",
"W. c #EAB779",
"Q. c #F0BE7B",
"!. c #919390",
"~. c #AA8B83",
"^. c #BB8E84",
"/. c #AC9282",
"(. c #AA958A",
"). c #B39384",
"_. c #BB9484",
"`. c #BC9C8C",
"'. c #B99889",
"]. c #B89B92",
"[. c #A49592",
"{. c #ACA497",
"}. c #B6A297",
"|. c #B9A28E",
" X c #A7A7A8",
".X c #B2B1B1",
"XX c #979EA4",
"oX c #C88A85",
"OX c #C19582",
"+X c #C39B84",
"@X c #CA9B84",
"#X c #C59C8D",
"$X c #C9998B",
"%X c #D39B88",
"&X c #C49D93",
"*X c #C89A92",
"=X c #D19492",
"-X c #CBA385",
";X c #C4A28D",
":X c #CBA38C",
">X c #C9A587",
",X c #DCAB84",
"<X c #D4A58B",
"1X c #D5AA8B",
"2X c #DCAB89",
"3X c #D5A684",
"4X c #DEB286",
"5X c #C4A293",
"6X c #CCA493",
"7X c #CCA99C",
"8X c #C8A59C",
"9X c #D4AA97",
"0X c #D9B49B",
"qX c #CCB698",
"wX c #E3B386",
"eX c #E3B48B",
"rX c #E9BB88",
"tX c #E5B897",
"yX c #E9B785",
"uX c #DAB5A5",
"iX c #CDB5AA",
"pX c #E5BCA3",
"aX c #E7BDA8",
"sX c #ECC28C",
"dX c #F5CC8D",
"fX c #F5C888",
"gX c #EDC393",
"hX c #EEC59C",
"jX c #EFC99B",
"kX c #F3CB94",
"lX c #F3CC99",
"zX c #F1C695",
"xX c #F8D297",
"cX c #FBD38B",
"vX c #C7C3BA",
"bX c #DBC9AF",
"nX c #ECC8A7",
"mX c #E6CFB8",
"MX c #B6BDC3",
"NX c #BAC2C9",
"BX c #BEC9D2",
"VX c #ADC1D3",
"CX c #C6C8C8",
"ZX c #C1CDD6",
"AX c #C6D3DC",
"SX c #D4D8D8",
"DX c #D3D1C9",
"FX c #CAD9E7",
"GX c #D7DEE2",
"HX c #D7E1E7",
"JX c #CFE1EF",
/* pixels */
"                                    d w y h c a a i p i c a w &                                                                 ",
"                                  f e > 2 i h h i p i i h p e > # @                                                             ",
"                                  u & & r i h j j b N n M n a e & * w a                                                         ",
"                                u : @ : 1 y k N ` q.p.p.N.M.q.E d m a a M                                                       ",
"                                w : : 5 g G } i.U.Y.sXW.sXQ.W.C.n.n.^ x c M c                                                   ",
"                              d * * h B | u.F.Y.sXdXdXdXfXfXfXQ.C.m.m./ m a h c                                                 ",
"                              w w m ] 0.A.J.Y.sXsXdXkXdXdXdXsXW.R.C.B.m.n.m p i i                                               ",
"                            s * E X.0.A.Y.wXeXgXkXkXkXkXdXrXW.sXQ.R.C.m.m.q.n a i                                               ",
"                          s w d O.#.S.Y.wXeXtXjXjXkXjXkXsXdXdXQ.R.R.I.V.B.m./ n c i                                             ",
"                          s t ^ #.M.L.T.wXtXkXjXjXhXhXgXxXcXdXfXfXQ.W.R.C.B.n.~ h c                                             ",
"                        e w z O.M.M.K.,XwXeXtXgXjXjXkXkXxXkXxXxXdXY.I.T.I.V.m./ x i                                             ",
"                        e w E O.M.Z.L.3X2XrXzXkXlXlXkXlXlXkXhXtXU.q.o.#.A.V.m./ E i i                                           ",
"                      s e w ! O.0.Z.K.Y.4XrXkXlXxXxXxXlXpXpXtX+Xu.@.i.y.p.A.N.n.~ x i                                           ",
"                      s w u ^ #.0.a.L.3X3X4XgXlXlXxXxXnXaXpX6X3.-.l.:X9X>XK.N.n.^ n t i                                         ",
"                      t > z o.#.0.A.F.J.4XtXtXtXpXnXnXnX0X9Xc.1.g.#X#X6X0X>XM.n./ n p p                                         ",
"                      t w E X.O.a.Z.J.3X1X<X9XuXuXuXuXtX1Xc.d.l.'.c.c.G.#X8Xp.n.O.n 4 r                                         ",
"                    w e t Q o.#.a.F.J.J.b.4._.7X7X9X0X1X<XOXz.).1.+.@.a.v.5Xv.n.q.m 2 > t                                       ",
"                    1 r a ] o.o.a.K.F.u.<.*.{ 4.l.+X6X0X4XG.c.4...L F { @.v.U.M.n.m & # r                                       ",
"                    1 y k ] X.@.p.F.@.{ *.:.>.4.1.4.c.gXfXT.d.h.[.J H y.0.F.U.N.n.E # # y                                       ",
"                    2 y b ] o.o.Z.y.} g.].].(.h.-.-.i.yXfXQ.p.d.].].#X>XJ.T.4XI.N.! 1 @ w                                       ",
"                    2 g M W X.+.i.<.f.5X&X].g.1.:.$.<.W.cXfXE.3.l.#X&XOX@X4XsXY.V.q.a # w                                       ",
"                    2 l k W X.X.2.l.].&X_.5.{ _ 4.h.@.T.zXdXQ.I.K.+X@X3X4XdXdXW.I.n.m t z                                       ",
"                    2 g g N ] X.@.'.5X`.5.H v P 4.-.2.P.yXxXfXR.E.rXfXfXcXcXcXQ.R.m.E ` #.                                      ",
"                    4 5 4 b ) ]  .l.&Xj.;.R P ;.1.2.Z.D.yXlXxXW.R.tXtXnXjXdXcXQ.W.C.^ @.D.D.                                    ",
"                    0 4 5 b ) +.' h.`.} { ~.].).j.y.3.Z.2XpXnXtXS.L.9XuXaXaXpXrXW.I.O.q.p.K.                                    ",
"                    g 5 8 k G ] ' d._.| 1.`.&X^.z.K.a.3.%XmXaX$XX.9.%X9X9XuXtXtXY.I.0.q.U.%X                                    ",
"                    5 = - g L ] '  .v.y.k.^.z.@X2X<XZ.3.x.*X*X$._ 3.L.<X6X7XuX9X,XT.N.o.,X%X                                    ",
"                    - @ : 9 M ] | @.k.+Xl.F.L.eXtX9Xj.+.L K d.| +.9.L.%X=X*X9X9X3XT.U.o.3XwX                                    ",
"                    - ; @ - g G X.@.k.>XU.,XtXpX9X*Xj.$.L K $.$.3.3.K.L.@X'.`.6X>XU.U.N.J.eX                                    ",
"                    > ; @ ; 5 M ' @.i.@XL.2X0XaX6X*Xz.7.$.7.5.~.l.x.K.L.J.z.).'.6X3XU.A.K.,XR.                                  ",
"                    t ; X @ ; g ` @.b.H.L.1XtXuX*X6XG.2.$.5.(.].^.OXK.L.J.G.).).;X>X-XU.K.,XS.                                  ",
"                    u - . X @ g ) @.F.K.J.<XuX7X8X*XD.6.5.~.].&X*X%XG.D.3.j._.'.;X>X-X-XA.E.S.                                  ",
"                      - . . X 5 B @.F.F.@X$X0X7X&X#Xz.j.^.].*XiX=Xx.7.+.( _ 7.^.5X>X>X>Xp.T.S.                                  ",
"                      w @ . . - M X.p.F.G.$X7X6X].^.z.6.^.^.oX*X9.6.D.K.+.( 8.^.5X;XH.>Xp.0.#.                                  ",
"                      u : @ 5 5 h ' a.b.z.+X5X|.).^.z.^.6.7.6.^.9XnXnXnX<X} _ _.5X>XH.>Xp.o.                                    ",
"                        * g } { j W @.i.k.+X;X'.~.l.~.$.8.6.7XmXmXmXqXqX0Xl.2.J.|.qXv.>Xb.^                                     ",
"                        u M 8.<.N M  .i.k._.`./.).~.8.C d.uXbXbX>.I F { s.#.L.Y.>X;XH.H.i.X.                                    ",
"                          2.| =...j ) y.k.l.`.'.).5._ 8.c.bX|.,.r.[.#XP.A.P.T.Y.4X|.v.|.i.]                                     ",
"                          z.2.).l.b M -.v./.`.`.(.:._ 5.iX|.%.].iX$XP.P.L.T.E.,X4XH.v.v.@.!                                     ",
"                            x._.G.` j | /.g.`.&X].6.K ~.].&.~.=XoXoX=X=X%X%X%XE.Y.U.b.v. .W                                     ",
"                            D.5Xj.4.b ) h././.|.`.v.j.2.2.+.6.oX=X7X&X*X=X3XE.,XY.U.b.b.] W                                     ",
"                            p.6Xl.j.B G w./.s.'.;X`.G.x.3.6.oX=X*X&X].*X1XeXE.W.T.p.i.u.)                                       ",
"                            #.G.OX_.| N *./.f.f.`.;X+Xc.D.z.^.^.'.&X*X%X2XwXE.E.I.q.q.` N                                       ",
"                              a.G.+Xj.B ..s.~.e.f.`.c.c.z.z.OX*X*X6X%X1X2XwXE.T.p. . .G m                                       ",
"                              @.j.G.6.M ` w.f.f.e.f.v.v.G.G.@X$X%X%X9X1X1X2XJ.F.q.G ` M                                         ",
"                                2.d._ * B ..r.f.t.-.h.k.v.G.J.J.J.<X9X7X9X8X+X5.` G B n                                         ",
"                                      * b [ %.t.t.-...w.u.x.F.G.+X6X7X8X8X].~.{ D B v V                                         ",
"                                        j ` U %.e.w.[ [ *.2.i.c.OX&X8X8X}.(.,.S M v N `                                         ",
"                                        z G U U %.-.%.I I ..-.w.~.~.(.].r.T A M M M G ]                                         ",
"                                          b K T I [ ..T D H T %.;.;.;.R H J F B M G `  .                                        ",
"                                          B L K I U T ..T D F P H Y H J P H D F F G { @.O.                                      ",
"                                          ] N S D D D I T &.Y J J J H P Y H D D G { q.u.0.                                      ",
"                                          ] ) F D S D S D I T Y Y H Y H H I I G `  .i.q.U.H.                                    ",
"                                          W ) K D S D G D D J I H H H H Y T I G %.u.i.i.qXt.                                    ",
"                                            ) { U D D I T T Y Y H H J H T R [ [ w.i.i.|.DXt.4                                   ",
"                                          ;.>.{ ..[ D D U T T T R Y T &.w.%.{  .y.y.b.vXDXt.6 >                                 ",
"                                          R .X[.u.w.[ F I [ ,.&.&.>.r.r.r... .w.i.u.vXSXvX{.l $ >                               ",
"                                        ; A MXNX{.s.w.{ D [ %.-.e.f./.g.s.w. .@.u..XSXDXvX{.l , 7 4                             ",
"                                8 < O + O A MXAXCX{.h.-.U { =.w.s.l.(.).s.w.w.w.{.SXGXDXvX{.v , , 7 2 r                         ",
"                      r 1 < = + + + + + O A XXVXAXAX X-.{ ..-.e.e.h.).g.w.-.u.g.AXHXSXZXvX{.q 3 , 7 1 1 1 4 p                   ",
"                > 7 % % ; O o + + o o + + Z XXVXBXFXFX{.} $.=.=.e.=.g.~.w.u./.ZXHXGXSXDXvX{.q 3 $ , , 1 1 1 3 3 4 r             ",
"            > % % O , , ; X o o o o + + 8 Z XXMXBXFXFXFX X*.-.s.s.4.~.g.w.f.NXHXHXGXSXDXvX!.0 3 , , 1 1 1 1 2 3 3 3 6 4 p       ",
"      > 7 $ % % % % = = O X . X + O + O 8 q XXMXBXAXFXFXFXMXe.=.4.4.:.>.r.vXGXHXHXGXDXCX.Xt.q 6 , , 1 1 3 3 3 3 3 6 3 6 6 4 p g ",
"> $ 7 $ $ 1 , , , % % % O X X O O O O + 8 q !.MXBXAXFXFXJXJXCX~.s.:.-.;. XVXFXHXHXSXSXCX.X!.8 8 3 , , 3 4 3 3 3 3 6 0 6 9 6 6 6 "
};
