/* XPM */
static char *b4954e725c8045afb994496c45515294F26wJf1IrrO33Dzc[] = {
/* columns rows colors chars-per-pixel */
"64 64 252 2 ",
"   c #121211",
".  c #2F261C",
"X  c #392D25",
"o  c #38312A",
"O  c #3E3332",
"+  c #392E32",
"@  c #191D20",
"#  c #46372B",
"$  c #533B2A",
"%  c #423735",
"&  c #443B36",
"*  c #4C3D35",
"=  c #463D39",
"-  c #4A3E3A",
";  c #483732",
":  c #513E35",
">  c #523F38",
",  c #402B28",
"<  c #633E31",
"1  c #6C6903",
"2  c #797609",
"3  c #726C16",
"4  c #6F6B0D",
"5  c #59482B",
"6  c #4D4136",
"7  c #4C413B",
"8  c #47403A",
"9  c #534136",
"0  c #54433B",
"q  c #59463B",
"w  c #5B493D",
"e  c #594638",
"r  c #685A2D",
"t  c #674838",
"y  c #6D5033",
"u  c #74692A",
"i  c #7B7527",
"p  c #776837",
"a  c #7E7332",
"s  c #7E783A",
"d  c #4C4442",
"f  c #524642",
"g  c #554943",
"h  c #5B4B42",
"j  c #574D4A",
"k  c #5B5349",
"l  c #5E5652",
"z  c #524E4E",
"x  c #634E42",
"c  c #645144",
"v  c #69584A",
"b  c #675A53",
"n  c #6D5850",
"m  c #77674B",
"M  c #7C7646",
"N  c #7B7054",
"B  c #6F644E",
"V  c #7B6A62",
"C  c #817D15",
"Z  c #867A37",
"A  c #857233",
"S  c #8F5D47",
"D  c #857C47",
"F  c #976A55",
"G  c #847857",
"H  c #8D6E4E",
"J  c #A36E56",
"K  c #A47259",
"L  c #B07759",
"P  c #897B74",
"I  c #8F7A6F",
"U  c #AA7A67",
"Y  c #868416",
"T  c #8E8B23",
"R  c #928A2B",
"E  c #959128",
"W  c #8D8437",
"Q  c #928C35",
"!  c #948C3A",
"~  c #988939",
"^  c #9A9434",
"/  c #96903A",
"(  c #9B943B",
")  c #9A9637",
"_  c #A2963B",
"`  c #A39B3D",
"'  c #A79B39",
"]  c #A59333",
"[  c #ABA43D",
"{  c #AAA53A",
"}  c #B2AA3C",
"|  c #B9B53B",
" . c #C3BB3E",
".. c #C2C33B",
"X. c #89834C",
"o. c #8A8241",
"O. c #948846",
"+. c #9C9441",
"@. c #9A9248",
"#. c #8B8454",
"$. c #978A58",
"%. c #9C9659",
"&. c #AD8B44",
"*. c #A59B43",
"=. c #A79846",
"-. c #B79B49",
";. c #A69B58",
":. c #A48956",
">. c #ACA443",
",. c #AAA447",
"<. c #B4AC44",
"1. c #B3AD4B",
"2. c #B7A748",
"3. c #BBB444",
"4. c #BEBA43",
"5. c #BBB44C",
"6. c #BEBA4D",
"7. c #B6B248",
"8. c #ACA655",
"9. c #B5AE53",
"0. c #B3AD5B",
"q. c #B9A756",
"w. c #B6B152",
"e. c #BCB553",
"r. c #BEBA54",
"t. c #BBB65B",
"y. c #9A9264",
"u. c #938772",
"i. c #A39D64",
"p. c #A69575",
"a. c #AE8B6A",
"s. c #AAA565",
"d. c #B2AB67",
"f. c #BAB56A",
"g. c #BAB567",
"h. c #BBB676",
"j. c #B1A975",
"k. c #C3BD45",
"l. c #C2BC4C",
"z. c #C4B849",
"x. c #C4AA57",
"c. c #C4B353",
"v. c #C3BD53",
"b. c #C3BD5B",
"n. c #C7B957",
"m. c #CCAB57",
"M. c #CC8C6C",
"N. c #D29577",
"B. c #C3BE6C",
"V. c #C3BB64",
"C. c #D4BC6C",
"Z. c #D3B667",
"A. c #C2BD73",
"S. c #C4BD79",
"D. c #C9B27E",
"F. c #D1AF6F",
"G. c #E1A27F",
"H. c #C39E4E",
"J. c #BFC049",
"K. c #C5C34D",
"L. c #CAC44D",
"P. c #CBCA4C",
"I. c #C6C643",
"U. c #D1CA4D",
"Y. c #C6C254",
"T. c #CAC554",
"R. c #CDCA54",
"E. c #C6C15B",
"W. c #CAC55B",
"Q. c #CDCA5B",
"!. c #C7C850",
"~. c #D1CC54",
"^. c #D1CE5C",
"/. c #D3D15C",
"(. c #D3D254",
"). c #D1D155",
"_. c #C6C162",
"`. c #CFCB62",
"'. c #CCC767",
"]. c #D2CE62",
"[. c #D5CA68",
"{. c #D4D164",
"}. c #D7D46A",
"|. c #D9D56C",
" X c #DBDA6C",
".X c #D8D765",
"XX c #C6C274",
"oX c #CDC97C",
"OX c #CAC47A",
"+X c #D3CA7A",
"@X c #D9D672",
"#X c #DBD872",
"$X c #E1DD7A",
"%X c #998C84",
"&X c #A49890",
"*X c #AFA490",
"=X c #B2ABA7",
"-X c #DEA786",
";X c #C4BD87",
":X c #C5BA93",
">X c #E3AA87",
",X c #E7B496",
"<X c #C9BBAF",
"1X c #E7BCA2",
"2X c #CBC787",
"3X c #D3CD84",
"4X c #D3CE8B",
"5X c #D6D185",
"6X c #DAD585",
"7X c #D7D189",
"8X c #DCD58D",
"9X c #DDD98E",
"0X c #DFDB84",
"qX c #CECC95",
"wX c #DDD691",
"eX c #DED991",
"rX c #D6D39A",
"tX c #D1C99F",
"yX c #E1DC8D",
"uX c #E1DC93",
"iX c #E2DD99",
"pX c #E5E293",
"aX c #D9CCAB",
"sX c #D9D5AA",
"dX c #DAD7B7",
"fX c #D0C6AF",
"gX c #E1DEA7",
"hX c #E4D9B7",
"jX c #E8C3AC",
"kX c #E7E3B6",
"lX c #DBD8C5",
"zX c #D2CECA",
"xX c #E9DBC6",
"cX c #EBDAD2",
"vX c #E7E5C8",
"bX c #EBEAD4",
"nX c #E8E7D7",
"mX c #F6F4D9",
"MX c #F4F3D6",
"NX c #EEEDE6",
"BX c #F3F2E4",
"VX c #F5F5EB",
"CX c #FCFCEA",
"ZX c #FAFAF4",
"AX c #FEFEFA",
"SX c #FFFFFD",
"DX c white",
"FX c #FEFEFE",
"GX c #FDFFFC",
"HX c #FFFFFF",
"JX c #F7F6F3",
"KX c #F2EEED",
/* pixels */
"DXDXDXDXDXDXDXDXDXDXDXDXDXDXDXDXDXDXDXDXDXDXDXDXDXDXDXAXDXDXDXDXDXDXDXDXAXAXDXDXDXDXDXDXDXDXAXDXDXDXDXDXDXDXDXDXDXDXDXDXDXDXDXDX",
"DXDXDXDXDXDXDXDXDXDXDXDXDXDXDXDXDXDXDXDXDXDXDXDXAXAXDXDXDXAXZXVXVXJXZXAXDXDXDXAXDXDXAXDXDXDXDXDXDXDXDXDXDXDXDXDXDXDXDXDXDXDXDXDX",
"DXDXDXDXDXDXDXDXDXDXDXDXDXDXDXDXDXDXDXDXDXDXDXDXFXFXbXhXqXOXB.B.B.XXXX2XsXkXBXDXDXDXDXDXDXDXDXDXDXDXDXDXDXDXDXDXDXDXDXDXDXDXDXDX",
"DXDXDXDXDXDXDXDXDXDXDXDXDXDXDXDXDXDXDXDXAXAXDXDXvX2X_.r.r.b.b.b.E.b.v.r.r.r.g.sXVXDXAXAXDXDXDXDXDXDXDXDXDXDXDXDXDXDXDXDXDXDXDXDX",
"DXDXDXDXDXDXDXDXDXDXDXDXDXDXDXDXDXDXDXDXAXDXBXqXt.b.E.E._._.'.E.E._.E.E.b.b.t.r.g.dXAXAXAXDXDXDXDXDXDXDXDXDXDXDXDXDXDXDXDXDXDXDX",
"DXDXDXDXDXDXDXDXDXDXDXDXDXDXDXDXDXDXDXAXDXbXXXr.E.E.b.'.'.W.W.W.Q.W.W.W.E.Y.E.r.r.e.2XCXSXGXDXDXDXDXDXDXDXDXDXDXDXDXDXDXDXDXDXDX",
"DXDXDXDXDXDXDXDXDXDXDXDXDXDXDXDXDXDXAXDXvXV.Y.E.E.E.Q.W.W.Q.W.W.W.Q.W.W.W.v.Y.r.r.t.9.A.BXDXDXDXDXDXDXDXDXDXDXDXDXDXDXDXDXDXDXDX",
"DXDXDXDXDXDXDXDXDXDXDXDXDXDXDXDXDXAXDXbXV.E.E.E.Q.Q.Q.Q.Q.Q.Q.Q.Q.W.W.W.W.Y.Y.b.r.e.t.9.A.JXDXFXDXDXDXDXDXDXDXDXDXDXDXDXDXDXDXDX",
"DXDXDXDXDXDXDXDXDXDXDXDXDXDXDXDXDXDXBXB.r._.T.Q.W.W.Q.Q.Q.Q.].Q.`.Q.E.Q.Q.E.Y.v.v.r.7.t.0.qXFXFXDXDXDXDXDXDXDXDXDXDXDXDXDXDXDXDX",
"DXDXDXDXDXDXDXDXDXDXDXDXDXDXDXDXDXDX2Xr.E.Q.E.W.Q.Q.Q.^.^.Q.^.Q.Q.].`.Q.Q.E.T.b.v.r.e.9.t.d.bXDXDXDXDXDXDXDXDXDXDXDXDXDXDXDXDXDX",
"DXDXDXDXDXDXDXDXDXDXDXDXDXDXDXAXDXbXt.t.Y.E.Q.Q.Q.R.^.^./.^.^.].].^.].Q.W.T.T.b.l.v.5.9.w.0.qXDXAXDXDXDXDXDXDXAXDXAXDXDXAXDXAXDX",
"DXDXDXDXDXDXDXDXDXDXDXDXDXDXDXAXDXqXt.E.E.Q.T.Q.R.^.^./././.].}.].[.].].Q.Q.T.Y.v.6.7.w.w.0.g.NXDXAXDXDXAXAXDXAXAXbXwXB.A.vXDXDX",
"DXDXDXDXDXDXDXDXDXDXDXDXDXDXDXDXmXB.t.Y.E.Y.R.Q.Q./././.].}.{.{.}.].{.{.`.`.R.Y.6.r.7.1.w.w.w.sXDXDXDXDXAXDXAXbX8Xc._ ' >.w.BXDX",
"DXDXDXDXDXDXDXDXDXDXDXDXDXDXAXDXdXt.E.E.T.!.Q.Q.^./././.{.}.|.}.}.}.{.`.`.!.!.J.6.4.w.1.1.9.w.V.MXZXVXmXvXgX+XQ.5.~ =.2.z.5.vXDX",
"DXDXDXDXDXDXDXDXDXDXDXDXDXDXDXZX2XE.b.Y.!.!.!.!.R.R./.{.|.|.@X|.@X}.`.Q.!.!.!.!.K.4.5.1.1.1.<.l.^.'.`.W.l.L.L.^.~ &.-.2.l.n.bXDX",
"AXDXDXAXDXAXDXDXAXAXAXDXDXDXDXnXf.E.r.v.Y.Y.R.).R.Q.^.{.{.|.@X@X@X@X{.Q.]./.T.9.=.9.Y.5.1.<.} Q.].Q.U.R.T.T.~.c.~ H.c.n.L.XXZXDX",
"DXDXAXBXJXFXFXFXDXDXSXDXDXDXDXrXb.b.r.v.!.].Q.r.Q./.^./.}.|.@X@X@X@X@X.XQ.=.p # # # r ,.,.>.} ~.].^.~.U.k. .k.3.c.Z.b.n.b.bXDXDX",
"DXBX+X_.[.8XsXvXvXbXvXvXkXgX0X/.L.6.6.Y.Y.Z y 5 A 9.^./.{.|.|.@X@X#X$X2.p $ # r s Z r u <.[ } L.L. .| c.g.S.f.t.5.z.n.2XbXDXAXDX",
"DX3Xl.n.v.n.Q.l.v.L.L.R.P.~.(..X!.4.r.r.p $ p r $ $ A 1.].{.{.}.].|.O.5 5 a <.l.I.l.z.,.;.,.,.' [ *XxXVXFXDXDXJXbXvXVXDXDXDXDXDX",
"mX'.Q.W.n.2.n.~.L.R.~.~./././..X~.4.v.*.r 8.`.'.t.Z e 5 p 1.(.].W.O.# r 3.L.k.4.| } { +.=.8.g.@.O.nXFXSXDXAXDXDXDXDXDXDXDXDXDXDX",
"VX}.^.[.^.m.2.~.L.T.L.L.~.R.U.(.P.4.5.w.l.].Q.Q.^.^.v.W 5 u K..X=.5 u | I.!.R.7.>.^ ^ ^ >.1.g.A.0.vXFXGXFXFXDXGXFXAXSXDXDXDXDXDX",
"DXgX^.|.}.[.c.z. .| k.z.E.'.}.| 4.v.r.e.r.4.Y.R.R.T.P.U.4.7.R.{.!.} | I.Y.d.p 5 m y.^  .l.z.w.h.h.lXFXFXFXFXFXDXSXDXDXDXDXDXDXDX",
"DXZXeX^.^.~.L.V.2XdXbXBXJXDXNX8._.Y.v.5.7.4.w.O.O.d.Y...!.)./..X(.| ..b.dXP , j t %.6.R.T.l.5.g.*XkXFXFXFXDXDXDXSXSXDXDXDXDXDXDX",
"DXDXDXvXwXuXgXVXDXDXDXDXDXDXBX3X'.L.K.Y.4.8.$.$ > v tXt.J.]./..X/.| | A.BX&Xd b M { R.!.T.Y.6.w.2XlXFXFXDXFXDXDXSXSXDXDXDXDXDXDX",
"DXDXAXDXDXDXDXDXAXAXDXDXGXDXbXXXY.!.T.!.).K.$.l d z lXdXl.(.(.^.P.I.k.4.6.t.O.~ } P.R.R.T.v.6.1.d.dXDXDXDXDXDXDXSXSXDXDXDXDXDXDX",
"DXDXDXDXAXDXDXAXDXDXDXDXGXDXlXV.E.T.T.Q.).).K.p.b G rX{.~.T.T.Q.T.T.Y.k.| ..I.P.~.T.T.^.~.l.5.1.d.aXAXDXDXDXDXDXDXSXDXDXDXDXDXDX",
"DXDXDXDXDXDXDXDXDXDXDXSXGXDXqX0._.T.Q.Q.Q.R.P.P.Y.!.I.P.T.Q.^.].].Q.R.T.6.k.!.Q.].].].Q.T.z.1.,.s.:XJXDXDXDXDXDXDXDXDXDXDXDXDXDX",
"DXDXDXDXDXDXDXDXDXDXDXDXFXFX4X,.g.E.Q./.{././.).R.R.!.J.Q.]..X|.|.].Q.T.5.7.l.v.Q.`.Q.T.z.3.>.*.s.h.NXSXSXDXDXDXDXDXDXDXDXDXDXDX",
"DXDXDXDXDXDXDXDXDXSXSXSXDXDX4X>.0.b.Q.].{.}.|.{.).!.K.Y.Q.{.}.}.}.^.U.L.3._ <.| J.K.K.K.3.<.+.+.;.j.vXFXSXSXSXDXDXDXDXDXDXDXDXDX",
"DXDXDXDXDXDXDXDXDXSXSXSXSXDX3X<.,.e.Y.`.{.{.{./.R.J.l.K.Q.].].^.^.T.L. .W u ] Q | | 3.} { ( / +.+.s.lXFXSXSXSXDXDXDXDXDXDXDXDXDX",
"DXDXDXDXDXDXDXDXDXDXDXSXAXSXqX<.>.,.w.Y.Q.!.K.!.!.| ] ' 6.l.R.T.T.l. .A i z. .} | { Q T i a / ( @.8.dXGXAXSXDXDXDXDXDXDXDXDXDXDX",
"DXDXDXDXDXDXDXDXDXDXDXDXAXSXrX7.,.*.8.( >.4.!.R.].).R.| { { } } } ] Z ^ k.L.I.I.7.| { ) Q ` { [ @.%.fXFXAXDXDXDXDXDXDXDXDXDXDXDX",
"DXDXDXDXDXDXDXDXDXDXDXAXFXDXsX5.7.>.*.^ ( Y.R.W.~.~././.~.P.l.<.z.n.^.(.U.U.k.k.5.7.} <.` } | >.+.@.dXDXFXFXFXDXDXDXFXDXDXDXDXDX",
"DXDXDXDXDXDXDXDXDXDXDXDXGXDXvXr.!.7.,.` 1.v.n.W.^.^.^.^.{. X X X$X#X|.^.~.n.L.z.4.l.` [ ) { 3.>./ O.lXFXFXFXFXFXDXDXFXFXDXDXDXDX",
"DXDXDXDXDXDXDXDXDXDXDXDXDXDXNXt.T.Y.5.<.w.w.-.W.Q.^.^.].{.}.{./.|.|.|.^.(.~.U.z.c.~ A 2.>.+.| [ ( O.nXFXZXFXGXGXFXFXDXFXDXFXDXDX",
"DXDXDXDXDXDXDXDXDXDXDXDXDXDXFXh.J.Y.Y.5.1.c.p A n.W.^..X|. X.X.X X X}.Q.l.H.' Z A , Z -.[ / } ` / %.ZXFXFXFXFXFXFXFXAXFXFXFXDXDX",
"DXDXDXDXDXDXDXDXDXDXDXDXSXFXSXaX5.E.v.6.w.c.A @ h.f.q.q.e.e.x.c.x.x.q.-.:.O.i.j.sXG &.' *.Q { ) Q N %X%X&X&X<XnXKXJXSXSXFXGXGXFX",
"DXDXDXDXDXDXDXDXDXDXDXDXSXFXSXNX0.r.J.7.6.n.&.X u.sXvXaXhXjXaXaX:XhXxXhXMXkXMXfXN D x._ ` ! { ! W e * 9 : 9 0 c n P =XzXnXJXFXFX",
"DXDXDXDXDXDXDXDXDXDXDXDXFXSXFXFX;X7.r.w.e.e.m.#   u.gXaXCXmXCXCXCXCXmXkXtXj.m X   @.t.) ) / ` W W B 8 d 7 0 f 0 0 f 0 x v V %X<X",
"DXDXDXDXDXDXDXDXDXDXDXDXSXFXAXFXnX8.1.w.z.5.Q.p @ e S F p.p.hXxX:XsXkXp.. X     5 V.0.) / / / a @.#.O d - - * 7 > f h g w f 0 b ",
"DXDXDXDXDXDXDXDXSXSXSXSXSXDXFXFXFX;X) ,.6.7.'.;.7 j J J U U < < y < $ < t t .   s [.=.( ! / W u ,.s.& & = 0 : 6 : 0 0 e e e 9 b ",
"DXDXDXDXDXFXDXDXSXSXSXDXDXDXFXGXFXVXd.( >.<.b.[.M z F N.a.-XF t K S t K M.L g X ;.C.~ ( Q W u i 8.d.6 O % : 0 * * - - 7 7 0 0 b ",
"DXDXDXDXDXDXDXDXSXSXSXSXSXSXSXFXGXZXh.E *.2.1.+Xx.V I N.-X>X-XM.-X>X>X>XN.L l p C.-.W / ! s u C ;.g.w O & : 9 : > 7 - - : 0 : b ",
"DXDXDXDXDXDXFXFXSXSXFXSXSXSXNX=X*X9.Y C R *.' n.C.:.p N.>X-X1X1X>XjXcX,XN.H 5 x.x.~ W ! W a 3 C 0.XXB + & & * * : * 9 6 : * % l ",
"DXFXFXFXDXDXAXDXSXSXSXAXzXP x o m _.E Y 2 / *.,.Z.C.:.J 1X,XjXcXxXxX1X>XN.t ;.m.&.Z W / Z u 1 R f.oXM + & = 6 * 8 8 - 8 * * & b ",
"DXFXFXFXFXFXFXGXDXDXzXP 0 - 0 7 B 6X} Y 2 C =._ x.C.F.H K >X>X>X,X>X>XL t K C.-.D Z ! ( a 1 2 ,.A.oX#.+ O 6 6 = & O = & - - * k ",
"DXDXFXFXFXAXFXDXcXP g 0 h h g 0 w S.OX^ Y 2 R =.` n.C.C.:.S J U L F t > %.F.H.&.A W ( W 3 1 T g.XX3Xy.o & & * = - O & & = - - l ",
"DXDXFXAXFXFXNX&Xc e q h 0 0 w w h f.oXXXE Y Y _ _ =.V.C.C.d.$.H S G U ;XF.-.&.A A ( +.a 1 1 8.XXoX2Xs.O & O O & 8 8 & & = 8 = l ",
"DXFXFXFXZX=Xn q x x h 0 e q h > d S.OX3XB.T Y T [ _ ` w.Z.Z.Z.Z.Z.Z.m.H.&.O.a u / [ o.3 1 *.A.OXoXoXh.8 * % O % = = & & 8 - = b ",
"DXFXDXKX%Xq c v x q 0 > f > > f - f.0X+X0XV.T Y ( [ *._ ' 2.<.2.2.-.' ~ Z u u ^ >.( i 1 *.XXXXS.oXoXoXw : ; & * & 8 = - 8 7 # b ",
"DXDXzXV > x c c h > > q 0 = f f % p.yX5X5X8XXXE Y >.>._ _ ( ^ ~ ~ Z Z Z Z W ` <.[ W 3 ,.XXXX+X3X5XoX3XB * : ; * = = - 7 - 7 * b ",
"DX=Xc h x x x x > - = - - - f - % $.@X6X7X7X8XoX` ] 7.<.' _ ( ^ ~ ~ ~ ) ' } 5.} ) s ;.A.XXoX3XuX6XoXoXB ; 9 * ; * 6 6 6 * 7 O l ",
"u.f h h f 0 > - 7 7 * 0 0 7 8 d = G 7X3X6X6X6X8X8Xw.<.6.5.<.>.>.' >.<.3.l.v.7.[ Q O.f.OX+X3X8X8X9XoX5XN * 9 * : * * * 6 7 6 % z ",
"w j f 0 h t f - - d 7 * : * 7 0 - m +X3X6X6X6X6X7X5X7.3.l.K.l.6.5.z.l.v.4.6.<.Q X.d.oX3X3X8X8X8X8X5X8XN # 9 * * : 9 * - - 9 # b ",
"g w 0 g h f > - - - * - * : 9 0 > h XX6X6X6X8X9X9X5XB.,.<.4.l.l.5.4.v.6.5.<.! X.s.h.3X7X7X8X8XuX8X3X7XN * 9 9 * = * - = 9 9 ; k ",
"- f x 0 f q > d - f 0 9 9 : 7 0 f 0 d.0X8X0X9XwX9X8X5Xd.+.+.+.( ! O.+.( o.W X.%.d.2X3X7XuX8X8XwX8X3X9X#.# 9 * 0 6 & - * * * ; j ",
"q h q g 7 0 e 0 0 > : e : : ; * 0 > %.uX8X9XuXeX8X8X5Xh.%.X.D D M M M M M #.i.d.S.3X7X8X6X8X8X8X7X5XeXG O 6 6 0 0 * * & - * ; j ",
"n 0 0 0 e 0 e e e 0 : 9 e : * * 0 q H eX8XeXeXuXeXeX7XS.8.%.$.$.#.#.X.X.#.y.d.XX2X7XuXuX8X8X8XuX7X5XpXG O = * & 6 = - > * & ; j ",
"I * f 0 7 > w 0 e e * 0 w q 9 : 0 t c 4XpX8XeXeX9XeXeX4Xh.j.s.i.s.%.%.%.s.f.XX2X7X8X8XuXuXuXuX8X7X7XuXG O * 6 * 7 - = * * = O j ",
"%X: 0 7 7 f e e q 0 : : w w w 9 : t e s.pXeXuXuXeXeXeXwX3XoXS.D.h.h.h.h.XX2X7X8X8X8X8XuX8X8X7X7X7X7XuXG & - = & * * = - = O O f ",
"*X> - 0 0 w w g w d * : e w w 7 8 w e G pX8XeXuXeX9XuXuXwX8X7X4X3X3X3X4X4X7XwXwXyX8XwX8X9XwXwX8X7X7XiXN ; 6 = 7 * 6 0 9 & % O j ",
"<Xt 0 w 0 w w g f 7 O 6 q t w 7 8 w e 7 2XeXeXuXeXuXuXuX8XuXuXwX8X8X8X8X8X8XwXwX8X9XuX7XwX9XwX9X7X7X9XN O * * * * 8 * : 0 * ; k ",
"<Xn w 0 d d f g d 7 % 8 w w g j d 8 7 & #.yXwXwXwX9XuXuX8X8X8XuXwXuX9X9XyXwX9XwX8XuX8X6XuX8X8X7X7X7XrXB & * & 6 7 9 : : * * , j ",
"aXn > d d 0 0 0 g 0 - 7 0 7 f g g g 0 0 h S.9XuXuXyXuXiXuXuXuX8XwX8X9XwXwX9X9XwXwXwX8X8X8X8X8X7XrXdXfXj * = * * = * : 7 * * # j "
};
