/* XPM */
static char *_6275_66a2c642dc4c59202bcb3a33ff941c418dd1dbd8540f3b59cd7ff9989cf1e0ea[] = {
/* columns rows colors chars-per-pixel */
"64 64 68 1 ",
"  c #7E4B38",
". c #8B5845",
"X c #915D4A",
"o c #9B624E",
"O c #9E6452",
"+ c #9E6957",
"@ c #9F655A",
"# c #9D6959",
"$ c #A16454",
"% c #A66A55",
"& c #A56B59",
"* c #AA6D59",
"= c #A6725B",
"- c #AC735E",
"; c #AC785D",
": c #B5795F",
"> c #A96E60",
", c #AE7461",
"< c #AE7B62",
"1 c #B07563",
"2 c #B57B62",
"3 c #BC7F66",
"4 c #B47F6D",
"5 c #BD7F68",
"6 c #BD7F70",
"7 c #B58165",
"8 c #BC8066",
"9 c #B68369",
"0 c #BC816A",
"q c #BC886F",
"w c #BB8573",
"e c #BD8A72",
"r c #C3876D",
"t c #C58A6E",
"y c #C08371",
"u c #C48C72",
"i c #C88E76",
"p c #C58D7A",
"a c #C98E79",
"s c #C49176",
"d c #CE9374",
"f c #C59379",
"g c #CD937C",
"h c #CF997E",
"j c #D19576",
"k c #D49876",
"l c #D29679",
"z c #D59A7B",
"x c #D99D7E",
"c c #C68C80",
"v c #CD9481",
"b c #CE9B81",
"n c #D39782",
"m c #D59A82",
"M c #DB9E82",
"N c #D6A084",
"B c #DEA284",
"V c #D6A288",
"C c #DDA489",
"Z c #DEA88C",
"A c #E1A586",
"S c #E4A987",
"D c #E2A589",
"F c #E5A98A",
"G c #E8AC8D",
"H c #E6AD90",
"J c #E9AD91",
"K c #EBB59D",
/* pixels */
"ddijjdijddddl2*ljjdddiddddddijddddddddddijddddddiddddddddddddddd",
"DAADDDSDDDDSB2*mDDADAAFDAADDAAAFDDDDDDDADAAADAADDFDADADADDDDDADD",
"FFSDAAADAxSAM2*MDFDDDDFDSSBBAABAABDASDDDFFFFDSSFDBAABDDAAAADAADA",
"AAABidddddjdl3*mDSDDAADASkjjjjjdddjdBAAAABDDAADDjddddddjddddddkA",
"jjdzDDSSSAADC1*ljddjjjjjdzDABBBAAADDldddijddjijjBAASASAASFAADDAj",
"BBBBBABAGDDGD2*MGDDDDDDDxdjjddjjxFFDAGSAFFFDFFADASAASSABBBAABABB",
"jjjjdddkBBBDM2*mABMAAAAADDAASSSDGABABAAAABMAAAFFGGSGGDkjkdddddjj",
"FDFFFFFAdddgl3*njjjjjjjjxABAABABAkjjgdjjdjljddMABxBBAMABBBDFFFDF",
"BBABBMBBBSAFB2*nABBBMBMBxjjkdjjddxGAFADSDSFSDDkdjjjjdkddjkABBCDD",
"jjdjdlldkGFGB2*liljjdjjjMSAFADASASSSFFFDSFFFFDFFASDSSDBBBBljllGD",
"DDSDFFFFBBBBM2*MFFFFFGSGFFFFSSSFFBABMBAMBBBBBBBBFFGSFDhdddBBBBCB",
"GDBBCMBMkjlll3*mBBMBBxBxBMxAxBBBAxjjlllllljjlljlxBxBBBFFGSllkkgl",
"AMdjjjjzBABBM2*nldlljjgdjjjjddjgdMBMBBMBBBBBBBBBkdkdldBBBBBBCBCB",
"jzGFGDGMjlggl2*mFFFFGFFFSGFFGFGFDMlgllllkgljjjllDGDFFFlldjlldjkd",
"DDCCCDCCDDDDB5*BDCACBDBDCBDDCCVmFhmZFDFCCSACDDDDDBCDDBDCDDDCACZC",
"5333555555556>*y505800055555009&&&935555888888550080080888808808",
"$&%%%%%%%%%*&&**%%*%%%%%%%%%*oXX X%&*%%%%%%%%*%%%*%%%%%%%%&&&%&&",
"&vnnnnnnnnmmmmnnMnnnMnznnnmnmgfecynmnnnMMnnMnnnMmmmmxmnnmmmmznnp",
"&nJGGGGGGDBMMMBBMMBMCGDJGGGDZHZsKnnJGDFFDGMMBMMMMMMFGDFFFFDFDFCt",
"&amMxxxxBBdllljjjjgjxSBxxxNBBBg7VqrBxADDFFxllzzjljlDDDNBBDFFFGDt",
"*aljjjljzSGGGGDGGSGFDGMjlklSxBBq27zzlAGDMxxBxxFSFFFDGSlllMxBxxxt",
"%gJFGGGSSAxxxBBxxzxBSDGAxBxxxxxSf7zBxxxMzjljjjDSAFADSSGGFzllkklt",
"%vMMMMBGGAlxkxAlzkzMFFFxdllkkzt9N90zzzzzDJGGGGGFFFFFDFxxMBBDDGDu",
"*alllllMxxMBxxMMBxMMxxASGGGGGHZqgHHHBxxxMzxxxzxxxxxMxzllhdkSSFBt",
"%vDFSGBjkllljjklkkkkkjzxzMznxmmfNhdNkzzzllxkkzzzkzzlkxGSFGHFSHCt",
"&vGFGDGGGGFGGGGGGSFFGFAzzzxxxg;=9;thNxxxxxxxxxxxxxxxxxxxzzxxxxxt",
"*azxxxzzxxFBxxxxBDDBxxnMxxxxBzzmVNHGMxxkxzlzzkzzzzlxxlzkkzkklzlt",
"*azkkjzzkxSxjllzxSSBlzzzlkljjxsfs;dxxxxxMSSSFFMxxxMMxMSFGSGSGGDt",
"%gJDGGGGGSDDGGGDGSFFFFJGGSDGGJv<9u0MzzzxzBSDSAxkxlxkzkDFDFFFSGBt",
"*nCMMMMMBBMMBBMMBBMMMBMMBBBBMMVehmbCDMCMABBBBBBBBBBBADAMMMMBBNBs",
"$111111111111111,,,,1,,,1,,1,1&@<>1,,,1111,:11,,,,11--1-11,<,,1,",
"1>>1>1*111*11**,,-,,,,,,,,,>,,1@#o>1>,$>1*,,,,,,,,,,1--1---,,-,,",
"MMMMMMMBBBBBBBCNBBBBBBBBCCBBBNNqwvhBNm=yMMCBMMMMMMMMBMMBMBBMBNBN",
"GFGGGGGAzzxzxzxxzxhzhzzzlxxkxHmsbesHGk*0DSGDGGSFGGGSGDFFGSFFFFFG",
"llkkkkllxzzzzxhxxxxxxxxxxzxxSBf7;9VFDl%0lxzzllAzjzzADSzkkklxklkl",
"xxxxxxxBGFGGDkzkxzzxzxzxzzzzlxbfbbVHGz&wzxzzMxAMxxxFFSxxxxmxxxxx",
"zkzzlxzzllzlkzxxzxxxzzxzxzxkxh;<q;uzlg*6FGGJFFGmxzzzlAxlkzzzkkzm",
"xzxxMxMxMxMxBFFGSFHZFSFHGGGHHBsqNglmxl%6zklzCSzkxxMMxDxxhxzxxxxh",
"GGGDzzxlzlMGGFFFFFSSFGBlkkkklh7<e9zHSz%6mMmBSGBGFFzzxlDGHGFGHHHH",
"kllzxzxxxxxljjzlkkkkkkzmNxxNmzeefhFFGz*6FxzkkkzzAAMzxxSFSAkkkkkk",
"xxxxGGGFFJDmxBBNNxxBxxBGSGSSJJFq97thlg%6ABxxxxxxSSGSSGDSSDxxxxxx",
"SGGDkkjjlllxzlzlzzkkxGGSSDGMllgmVsqBMj*6ASSSDGSFxlDGFSGSFGFGGGGF",
"jkjzxxxxxMxMBxxxxxxxzdkkjklxMCz997fzxg&yDFGFDFFFMMllllkjdkljjjhd",
"MxBBGGGGGFGGGFGGHGGHSxBxMxMxllhe9qlBMg&yzjllklllDFMMxxMMxxBBBxBB",
"llllkjlljllllljzllllkllkzMFBzBh4sefzlg&ymMMMMMMMAFFFFFllkkjljjzl",
"BBBBMBMMMMMMMMMMMMMMBmBCMASFGCewgfzBMz&6DGFGFFHFFFFFFFBMMMBBBMMM",
"nmnnMnnmMnmnMnnnmmmmmznmzmmnmpwwe9fmnb&wnnnnnnmnnnnnnznnnMmmnnMn",
"%%%%%%%*%%%%%%%%%%%%%%%%%%%%%=&$#.+&&%O$&*%%%%%%%%%%%%%%%%%%%%*&",
"3353335333333353333333333333551O&<*633555555355333338805305555$4",
"AADDDDDCDDDDDDDDDDFDDDDDADADDDDabmzDDDDAAADCDDDDDCDDDBDFDCDFDy&n",
"GSDGFFSAjlzzljlljljkdMGSGDGMjjjzllDGDGGDDGGFSxjkzjllllllldlllr%c",
"DABjjljzBBMMBBBMBBMMBzdjjjjzABMMBBljjjjjjjlddxAxMBMMBBBBBBMBMr%v",
"FDSxAxBxjjjjjxSGDFFFSABBMBBxjjjzddxBBBBBMBBBxFFFFFFFFSljjjkFDr%n",
"DDDDGSFAxBBBBxijjjkjxGDDDSSDxxBBBBDGFGASSSDSDDFSSSDSkjBBBBBSDy&a",
"kjjjjjjjkjjjjzDABMADxddjjddxGGFDFFDGDDDDDDxjjddjdjdkBBSDFSGSDr%a",
"xAAMAAMAxABBBAFFFFFSSxBBBBBxjjjjjdddjjjjjjMBABBBBBBBDGSSADDDDy%v",
"SFFSDFFFFFSSSDDDAADDSSSGSSSABBBBBBAxAAxABBkjjjjjjjjlASDDGAASDr%g",
"ASBjjkFBdkijjjjjddjjjjjjjjjjdjjdjBSADSSDFAABxABAMABBjjjjjdlSDr%n",
"ddzABBDAABBABBABBAAAAABABAAAABAAAzjjdjjdjjjljjjjkjjlBAAABxADDr%a",
"BANjjjjjjjjjdjjjjxADAAAAAAAASADAABBAxAxABBMAAAAMBBBBSSSDkdkjjr%a",
"SFDBABABABBBAABADnjjdddajdddijddddjgkjjjjjdAFFFljjjdijDDADBDDr*v",
"DFDGDFFDFFFFSDDSDCDBBDDDADDADABDACDDDABADAADDDFCABDMDDDFDDDDDy%v",
"iisaiiiiaaiiiiaaaaaaaaaaaaaaaaaaaaaaaaaafiiiaaaaaaaaaiiiaaaac6&c",
"OO$OO$$O$$$$$$$$$$$$$$$$$$$$$$$$O$$$$$$$$OO$$$OOOOO$o$$$$$$$$$$@"
};
